<?xml version="1.0" encoding="UTF-8" standalone="no"?>
<!-- Created with Inkscape (http://www.inkscape.org/) -->

<svg
   xmlns:dc="http://purl.org/dc/elements/1.1/"
   xmlns:cc="http://creativecommons.org/ns#"
   xmlns:rdf="http://www.w3.org/1999/02/22-rdf-syntax-ns#"
   xmlns:svg="http://www.w3.org/2000/svg"
   xmlns="http://www.w3.org/2000/svg"
   xmlns:sodipodi="http://sodipodi.sourceforge.net/DTD/sodipodi-0.dtd"
   xmlns:inkscape="http://www.inkscape.org/namespaces/inkscape"
   width="100.6537mm"
   height="100.6537mm"
   viewBox="0 0 100.6537 100.6537"
   version="1.1"
   id="svg1186"
   inkscape:version="0.92.2 (5c3e80d, 2017-08-06)"
   sodipodi:docname="decks.svg">
  <defs
     id="defs1180" />
  <sodipodi:namedview
     id="base"
     pagecolor="#ffffff"
     bordercolor="#666666"
     borderopacity="1.0"
     inkscape:pageopacity="0.0"
     inkscape:pageshadow="2"
     inkscape:zoom="1.979899"
     inkscape:cx="204.01766"
     inkscape:cy="191.84888"
     inkscape:document-units="mm"
     inkscape:current-layer="layer1"
     showgrid="false"
     fit-margin-top="0"
     fit-margin-left="0"
     fit-margin-right="0"
     fit-margin-bottom="0"
     inkscape:window-width="2560"
     inkscape:window-height="1377"
     inkscape:window-x="-8"
     inkscape:window-y="-8"
     inkscape:window-maximized="1" />
  <metadata
     id="metadata1183">
    <rdf:RDF>
      <cc:Work
         rdf:about="">
        <dc:format>image/svg+xml</dc:format>
        <dc:type
           rdf:resource="http://purl.org/dc/dcmitype/StillImage" />
        <dc:title></dc:title>
      </cc:Work>
    </rdf:RDF>
  </metadata>
  <g
     inkscape:label="Capa 1"
     inkscape:groupmode="layer"
     id="layer1"
     transform="translate(257.4578,-163.51839)">
    <rect
       transform="rotate(90)"
       ry="0.79374999"
       rx="0.79374999"
       y="168.0515"
       x="174.76437"
       height="78.158707"
       width="78.160675"
       id="rect828"
       style="opacity:1;fill:#ffffff;fill-opacity:1;stroke:none;stroke-width:0.79870504;stroke-linecap:round;stroke-linejoin:miter;stroke-miterlimit:4;stroke-dasharray:none;stroke-dashoffset:0;stroke-opacity:1;paint-order:stroke fill markers" />
    <path
       style="opacity:1;fill:#ffffff;fill-opacity:1;stroke:none;stroke-width:3;stroke-linecap:round;stroke-linejoin:miter;stroke-miterlimit:4;stroke-dasharray:none;stroke-dashoffset:0;stroke-opacity:1;paint-order:stroke fill markers"
       d="M 190.20898 1.1367188 C 189.44213 1.1367187 188.6755 1.4319255 188.08789 2.0195312 L 2.0214844 188.08594 C 0.84627292 189.26115 0.84627292 191.15291 2.0214844 192.32812 L 188.09375 378.40039 C 189.26896 379.5756 191.16073 379.5756 192.33594 378.40039 L 378.40234 192.33398 C 379.57756 191.15877 379.57756 189.26506 378.40234 188.08984 L 192.33008 2.0195312 C 191.74247 1.4319255 190.97584 1.1367188 190.20898 1.1367188 z M 41.058594 25.123047 A 16.541249 16.541249 0 0 0 24.515625 41.664062 A 16.541249 16.541249 0 0 0 41.058594 58.205078 A 16.541249 16.541249 0 0 0 57.599609 41.664062 A 16.541249 16.541249 0 0 0 41.058594 25.123047 z M 339.05859 25.123047 A 16.541249 16.541249 0 0 0 322.51758 41.664062 A 16.541249 16.541249 0 0 0 339.05859 58.205078 A 16.541249 16.541249 0 0 0 355.59961 41.664062 A 16.541249 16.541249 0 0 0 339.05859 25.123047 z M 41.058594 323.12305 A 16.541249 16.541249 0 0 0 24.515625 339.66406 A 16.541249 16.541249 0 0 0 41.058594 356.20508 A 16.541249 16.541249 0 0 0 57.599609 339.66406 A 16.541249 16.541249 0 0 0 41.058594 323.12305 z M 339.05859 323.12305 A 16.541249 16.541249 0 0 0 322.51758 339.66406 A 16.541249 16.541249 0 0 0 339.05859 356.20508 A 16.541249 16.541249 0 0 0 355.59961 339.66406 A 16.541249 16.541249 0 0 0 339.05859 323.12305 z "
       transform="matrix(0.26458333,0,0,0.26458333,-257.4578,163.51839)"
       id="circle836" />
    <rect
       ry="0.79374999"
       rx="0.79374999"
       y="175.00781"
       x="-245.96875"
       height="77.673828"
       width="77.675781"
       id="rect826"
       style="opacity:1;fill:#ffffff;fill-opacity:1;stroke:none;stroke-width:0.79374999;stroke-linecap:round;stroke-linejoin:miter;stroke-miterlimit:4;stroke-dasharray:none;stroke-dashoffset:0;stroke-opacity:1;paint-order:stroke fill markers" />
    <path
       style="color:#000000;font-style:normal;font-variant:normal;font-weight:normal;font-stretch:normal;font-size:medium;line-height:normal;font-family:sans-serif;font-variant-ligatures:normal;font-variant-position:normal;font-variant-caps:normal;font-variant-numeric:normal;font-variant-alternates:normal;font-feature-settings:normal;text-indent:0;text-align:start;text-decoration:none;text-decoration-line:none;text-decoration-style:solid;text-decoration-color:#000000;letter-spacing:normal;word-spacing:normal;text-transform:none;writing-mode:lr-tb;direction:ltr;text-orientation:mixed;dominant-baseline:auto;baseline-shift:baseline;text-anchor:start;white-space:normal;shape-padding:0;clip-rule:nonzero;display:inline;overflow:visible;visibility:visible;opacity:1;isolation:auto;mix-blend-mode:normal;color-interpolation:sRGB;color-interpolation-filters:linearRGB;solid-color:#000000;solid-opacity:1;vector-effect:none;fill:#000000;fill-opacity:1;fill-rule:nonzero;stroke:none;stroke-width:3.99999976;stroke-linecap:butt;stroke-linejoin:miter;stroke-miterlimit:4;stroke-dasharray:none;stroke-dashoffset:0;stroke-opacity:1;paint-order:normal;color-rendering:auto;image-rendering:auto;shape-rendering:auto;text-rendering:auto;enable-background:accumulate"
       d="M 190.2168 0 L 188.80078 1.4140625 L 147.71094 42.503906 L 153.36133 42.503906 L 190.21289 5.6523438 L 227.06445 42.503906 L 232.7207 42.503906 L 190.2168 0 z M 190.21094 12.626953 L 188.79688 14.041016 L 160.33398 42.503906 L 165.99219 42.503906 L 190.21094 18.285156 L 214.42969 42.503906 L 220.08789 42.503906 L 190.21094 12.626953 z M 41.578125 22.445312 C 31.152563 22.445312 22.658203 30.939674 22.658203 41.365234 C 22.658203 51.790797 31.152563 60.285156 41.578125 60.285156 C 41.892707 60.285156 42.19888 60.253569 42.509766 60.238281 L 42.509766 56.236328 C 42.200062 56.255343 41.892774 56.283203 41.578125 56.283203 C 33.314301 56.283203 26.658203 49.629058 26.658203 41.365234 C 26.658203 33.101411 33.314301 26.445312 41.578125 26.445312 C 49.841911 26.445312 56.496094 33.101411 56.496094 41.365234 C 56.496094 41.749796 56.467765 42.126824 56.439453 42.503906 L 60.439453 42.503906 C 60.462233 42.124977 60.498047 41.749746 60.498047 41.365234 C 60.498047 30.939674 52.003687 22.445313 41.578125 22.445312 z M 339.57812 22.445312 C 329.15258 22.445312 320.6582 30.939674 320.6582 41.365234 C 320.6582 41.749746 320.69402 42.124977 320.7168 42.503906 L 324.71484 42.503906 C 324.68652 42.126824 324.6582 41.749796 324.6582 41.365234 C 324.6582 33.101411 331.31436 26.445312 339.57812 26.445312 C 347.84195 26.445312 354.49609 33.101411 354.49609 41.365234 C 354.49609 49.629058 347.84195 56.283203 339.57812 56.283203 C 339.01471 56.283203 338.46094 56.245812 337.91406 56.185547 L 337.91406 60.201172 C 338.46372 60.249494 339.01623 60.285156 339.57812 60.285156 C 350.00369 60.285156 358.49609 51.790797 358.49609 41.365234 C 358.49609 30.939674 350.00369 22.445313 339.57812 22.445312 z M 190.5293 43.152344 C 109.00746 43.152344 42.839844 109.32578 42.839844 190.84766 C 42.839844 272.36953 109.00746 338.53711 190.5293 338.53711 C 272.05117 338.53711 338.22656 272.36953 338.22656 190.84766 C 338.22656 109.32578 272.05117 43.152344 190.5293 43.152344 z M 50.355469 50.355469 L 50.355469 112.35742 L 54.201172 113.11719 C 73.873008 65.342748 114.31055 54.283203 114.31055 54.283203 L 113.7793 50.355469 L 50.355469 50.355469 z M 266.88867 50.355469 L 266.35547 54.283203 C 266.35547 54.283203 306.79496 65.342748 326.4668 113.11719 L 330.3125 112.35742 L 330.3125 50.355469 L 266.88867 50.355469 z M 190.5293 51.154297 C 267.72766 51.154297 330.22461 113.64929 330.22461 190.84766 C 330.22461 268.04602 267.72766 330.54297 190.5293 330.54297 C 113.33097 330.54297 50.833984 268.04602 50.833984 190.84766 C 50.833984 113.64929 113.33097 51.154297 190.5293 51.154297 z M 54.355469 54.357422 L 103.96875 54.357422 C 91.500089 60.160168 69.255992 74.221434 54.355469 104.00781 L 54.355469 54.357422 z M 276.69922 54.357422 L 326.3125 54.357422 L 326.3125 104.00781 C 311.41198 74.221434 289.16788 60.160168 276.69922 54.357422 z M 337.91406 147.69727 L 337.91406 153.35547 L 374.76758 190.20898 L 337.91406 227.0625 L 337.91406 232.7207 L 380.42578 190.20898 L 337.91406 147.69727 z M 42.509766 147.70703 L 0.001953125 190.21484 L 42.509766 232.72266 L 42.509766 227.0625 L 5.65625 190.20898 L 42.509766 153.35547 L 42.509766 147.70703 z M 42.509766 160.32812 L 12.628906 190.20898 L 42.509766 220.08984 L 42.509766 214.44336 L 18.28125 190.21484 L 42.509766 165.98633 L 42.509766 160.32812 z M 337.91406 160.33008 L 337.91406 165.98828 L 362.14062 190.21484 L 337.91406 214.44141 L 337.91406 220.09961 L 367.79883 190.21484 L 337.91406 160.33008 z M 54.201172 266.35742 L 50.355469 267.11719 L 50.355469 329.11914 L 113.7793 329.11914 L 114.31055 325.19141 C 114.31055 325.19141 73.873008 314.1319 54.201172 266.35742 z M 326.4668 266.35742 C 306.79496 314.1319 266.35547 325.19141 266.35547 325.19141 L 266.88867 329.11914 L 330.3125 329.11914 L 330.3125 267.11719 L 326.4668 266.35742 z M 54.355469 275.4668 C 69.256029 305.2514 91.500467 319.31467 103.96875 325.11719 L 54.355469 325.11719 L 54.355469 275.4668 z M 326.3125 275.4668 L 326.3125 325.11719 L 276.69922 325.11719 C 289.1675 319.31467 311.41194 305.2514 326.3125 275.4668 z M 41.578125 320.44531 C 31.152563 320.44531 22.658203 328.93967 22.658203 339.36523 C 22.658203 349.79083 31.152563 358.28516 41.578125 358.28516 C 52.003687 358.28516 60.498047 349.79083 60.498047 339.36523 C 60.498047 338.8752 60.460679 338.39488 60.423828 337.91406 L 56.423828 337.91406 C 56.469586 338.3918 56.496094 338.87513 56.496094 339.36523 C 56.496094 347.62906 49.841911 354.2832 41.578125 354.2832 C 33.314301 354.2832 26.658203 347.62906 26.658203 339.36523 C 26.658203 331.10145 33.314301 324.44531 41.578125 324.44531 C 41.892774 324.44531 42.200062 324.47317 42.509766 324.49219 L 42.509766 320.49219 C 42.19888 320.4769 41.892707 320.44531 41.578125 320.44531 z M 339.57812 320.44531 C 339.01623 320.44531 338.46372 320.48098 337.91406 320.5293 L 337.91406 324.54297 C 338.46094 324.48269 339.01471 324.44531 339.57812 324.44531 C 347.84195 324.44531 354.49609 331.10145 354.49609 339.36523 C 354.49609 347.62906 347.84195 354.2832 339.57812 354.2832 C 331.31436 354.2832 324.6582 347.62906 324.6582 339.36523 C 324.6582 338.87513 324.6847 338.3918 324.73047 337.91406 L 320.73242 337.91406 C 320.69557 338.39488 320.6582 338.8752 320.6582 339.36523 C 320.6582 349.79083 329.15258 358.28516 339.57812 358.28516 C 350.00369 358.28516 358.49609 349.79083 358.49609 339.36523 C 358.49609 328.93967 350.00369 320.44531 339.57812 320.44531 z M 147.70117 337.91406 L 190.21094 380.42383 L 232.7207 337.91406 L 227.06445 337.91406 L 190.21289 374.76562 L 153.36133 337.91406 L 147.70117 337.91406 z M 160.33398 337.91406 L 190.2168 367.79688 L 220.09961 337.91406 L 214.44141 337.91406 L 190.21094 362.14453 L 165.98047 337.91406 L 160.33398 337.91406 z "
       transform="matrix(0.26458333,0,0,0.26458333,-257.4578,163.51839)"
       id="circle1062" />
    <path
       style="color:#000000;font-style:normal;font-variant:normal;font-weight:normal;font-stretch:normal;font-size:medium;line-height:normal;font-family:sans-serif;font-variant-ligatures:normal;font-variant-position:normal;font-variant-caps:normal;font-variant-numeric:normal;font-variant-alternates:normal;font-feature-settings:normal;text-indent:0;text-align:start;text-decoration:none;text-decoration-line:none;text-decoration-style:solid;text-decoration-color:#000000;letter-spacing:normal;word-spacing:normal;text-transform:none;writing-mode:lr-tb;direction:ltr;text-orientation:mixed;dominant-baseline:auto;baseline-shift:baseline;text-anchor:start;white-space:normal;shape-padding:0;clip-rule:nonzero;display:inline;overflow:visible;visibility:visible;opacity:1;isolation:auto;mix-blend-mode:normal;color-interpolation:sRGB;color-interpolation-filters:linearRGB;solid-color:#000000;solid-opacity:1;vector-effect:none;fill:#000000;fill-opacity:1;fill-rule:nonzero;stroke:none;stroke-width:1.32291663;stroke-linecap:butt;stroke-linejoin:miter;stroke-miterlimit:4;stroke-dasharray:none;stroke-dashoffset:0;stroke-opacity:1;paint-order:normal;color-rendering:auto;image-rendering:auto;shape-rendering:auto;text-rendering:auto;enable-background:accumulate"
       d="m -247.29102,173.68555 v 0.66211 79.6582 h 80.32032 v -80.32031 z m 1.32227,1.32226 h 77.67578 v 77.67383 h -77.67578 z"
       id="rect1043"
       inkscape:connector-curvature="0" />
    <path
       inkscape:connector-curvature="0"
       id="path1331"
       d="m -186.55151,191.29825 -10.41911,0.0972 c -4.67471,0.0437 -7.36513,0.0867 -9.03502,0.18422 -1.66984,0.0975 -2.27608,0.23805 -2.9102,0.488 -0.92086,0.36297 -3.30195,1.08422 -5.4088,1.65027 -4.26688,1.14643 -7.46871,2.35964 -8.67929,3.19367 -0.56335,0.38809 -1.99519,1.21862 -3.28067,1.91437 -1.24058,0.67143 -2.82909,1.72446 -3.39416,2.22376 -0.6704,0.59233 -2.11135,1.75682 -3.24355,2.62373 -1.13646,0.87023 -2.26057,2.10561 -2.56672,2.70566 -0.63754,1.24974 -0.77896,3.52138 -0.31753,4.73504 -0.0301,-0.079 0.0706,0.13149 0.21016,0.36078 0.13954,0.2293 0.33771,0.54491 0.58468,0.93123 0.49397,0.77266 1.18371,1.83023 2.00546,3.07766 1.64348,2.49484 3.81465,5.74913 6.01078,9.01462 2.19612,3.26551 4.41732,6.54283 6.1609,9.08436 0.87177,1.27074 1.62451,2.35749 2.19371,3.16569 0.5692,0.80814 0.98989,1.37401 1.07016,1.46502 0.27707,0.31417 1.19372,0.96925 1.84669,1.27067 1.32921,0.61343 3.41614,0.71564 4.60782,0.26257 0.12412,-0.0472 0.71112,-0.37439 1.37954,-0.80963 0.66842,-0.43526 1.47177,-0.99248 2.24057,-1.56072 2.72193,-2.01179 3.16645,-2.20483 6.35373,-2.77892 2.52238,-0.45434 4.75279,-0.58484 8.87013,-0.52414 3.05469,0.045 4.74427,0.0204 5.82147,-0.2132 1.0772,-0.23352 1.58499,-0.63053 2.50515,-1.52458 1.06368,-1.03347 1.45429,-1.32816 1.69048,-3.85419 0.23625,-2.52603 0.18783,-7.16425 0.0768,-16.35355 l -0.1964,-16.24873 -0.76227,-1.35868 v -5.3e-4 c -0.39232,-0.69921 -1.41668,-1.82368 -2.11132,-2.30976 z m -4.44397,1.48132 c 0.52432,-7.9e-4 0.98007,0.004 1.37956,0.0132 1.59793,0.0389 2.29743,0.16648 2.89647,0.41676 1.5157,0.63331 2.39319,1.83312 2.67719,3.60586 0.0238,0.15 0.0317,0.31922 0.0453,0.60708 0.0135,0.28785 0.0271,0.66818 0.0407,1.13274 0.0274,0.92913 0.0551,2.19333 0.0809,3.70407 0.0517,3.02147 0.0973,7.02788 0.12467,11.29132 l 0.10128,15.72866 -1.34702,1.23401 -1.31746,1.20753 -5.96448,0.22646 c -4.88291,0.18534 -8.3635,0.25546 -10.79463,0.20201 -2.43115,-0.0534 -3.77753,-0.18531 -4.59507,-0.58825 -0.51559,-0.25408 -1.01703,-0.47871 -1.39737,-1.00094 -0.38036,-0.52226 -0.58534,-1.24251 -0.73075,-2.43901 -0.29083,-2.39297 -0.3351,-6.82025 -0.44731,-15.81973 l -0.20658,-16.56934 1.29098,-1.291 1.28339,-1.28287 9.97079,-0.24934 c 3.14569,-0.0786 5.33649,-0.12666 6.90944,-0.12925 z m 2.87462,2.18102 -18.14378,0.201 c -1.29222,0.0143 -2.3332,1.0781 -2.31891,2.37032 l 0.33379,30.14696 c 0.0143,1.29223 1.07863,2.33273 2.37086,2.31844 l 18.14375,-0.201 c 1.29219,-0.0143 2.33275,-1.07813 2.31841,-2.37033 l -0.3338,-30.14698 c -0.0143,-1.29222 -1.07813,-2.33272 -2.37032,-2.31841 z m -23.90979,0.22848 0.15168,14.1705 c 0.0397,3.71666 0.0671,7.10708 0.0799,9.57697 0.007,1.23489 0.01,2.23943 0.007,2.94074 0,0.35062 -0.003,0.6251 -0.005,0.81724 -0.003,0.0961 -0.003,0.17089 -0.006,0.22897 -0.003,0.0291 -0.003,0.0533 -0.005,0.0809 0,0.0138 -0.003,0.0277 -0.006,0.0529 -0.003,0.0127 -0.005,0.0274 -0.0116,0.055 -0.003,0.0138 -0.008,0.0307 -0.0177,0.056 -0.01,0.0254 -0.0598,0.11377 -0.06,0.11398 -0.0538,0.077 -0.18524,0.20204 -0.37352,0.22445 -0.18827,0.0225 -0.33123,-0.0618 -0.39893,-0.11706 -0.13555,-0.11043 -0.13841,-0.16322 -0.16029,-0.20812 -0.0437,-0.0898 -0.0625,-0.15398 -0.088,-0.24072 -0.0512,-0.17348 -0.10761,-0.40907 -0.17508,-0.71548 -0.13488,-0.6127 -0.30842,-1.49805 -0.50834,-2.57485 -0.39984,-2.15357 -0.90313,-5.06788 -1.39176,-8.02743 -0.48864,-2.95955 -0.96264,-5.96333 -1.30321,-8.29408 -0.17028,-1.16537 -0.30723,-2.16179 -0.39642,-2.90463 -0.0446,-0.37141 -0.0771,-0.67888 -0.0961,-0.91749 -0.0193,-0.23861 -0.046,-0.34703 -0.004,-0.57604 0.13838,-0.75596 0.60323,-1.47447 1.19179,-2.08077 0.58854,-0.6063 1.30509,-1.1 2.066,-1.28795 z m 23.91844,0.55314 c 0.87275,-0.01 1.57035,0.67269 1.58001,1.54544 l 0.33385,30.14696 c 0.01,0.87275 -0.6727,1.57091 -1.54546,1.58059 l -18.14375,0.20048 c -0.87275,0.01 -1.57091,-0.6727 -1.58056,-1.54546 l -0.3338,-30.14696 c -0.01,-0.87275 0.6732,-1.57089 1.54593,-1.58055 z m -29.93327,0.52617 -0.35978,2.42528 c -0.0469,0.31495 0.0418,1.7169 0.40709,4.23889 0.36531,2.52197 0.98094,6.24552 1.90013,11.53864 0.69355,3.99367 1.31231,7.63614 1.75051,10.2888 0.2191,1.32636 0.39293,2.40467 0.5089,3.15807 0.058,0.37671 0.10147,0.67162 0.12922,0.87934 0.0138,0.10385 0.0238,0.18505 0.03,0.25085 0.003,0.0329 0.007,0.0601 0.007,0.0967 0,0.0183 0,0.0375 -0.003,0.0764 -0.003,0.0193 -0.003,0.0433 -0.0143,0.0875 -0.006,0.022 -0.0135,0.0492 -0.031,0.088 -0.0175,0.0389 -0.10665,0.1555 -0.10687,0.15568 -2.1e-4,0 -0.30379,0.14859 -0.30379,0.14862 0,2e-5 -0.21696,-0.0132 -0.28038,-0.0417 -0.12687,-0.057 -0.15716,-0.10697 -0.1837,-0.13793 -0.053,-0.0618 -0.0601,-0.0837 -0.0712,-0.1048 -0.0228,-0.0422 -0.032,-0.0663 -0.0443,-0.0962 -0.0246,-0.0597 -0.0508,-0.13068 -0.084,-0.22392 -0.0664,-0.18635 -0.15711,-0.45516 -0.27175,-0.80298 -0.22926,-0.69565 -0.55224,-1.70389 -0.9465,-2.95246 -0.78851,-2.49714 -1.86113,-5.95379 -3.02776,-9.76929 -2.45893,-8.04201 -3.69059,-11.96431 -3.89948,-14.25549 -0.10443,-1.14558 0.0763,-1.96217 0.56994,-2.54892 0.49363,-0.58677 1.17644,-0.89285 1.99578,-1.31086 z m -7.15266,3.66183 0.41621,2.00292 c 0.0196,0.0934 0.17566,0.67144 0.4163,1.5032 0.24058,0.83175 0.57306,1.9582 0.97245,3.29697 0.79875,2.67753 1.86594,6.20508 3.00892,9.93518 1.14371,3.73239 2.17154,7.13568 2.90668,9.61408 0.36756,1.2392 0.66189,2.24695 0.86151,2.95093 0.0998,0.35197 0.17577,0.62756 0.22646,0.82235 0.0251,0.0974 0.0442,0.17317 0.058,0.23661 0.007,0.0318 0.0127,0.0585 0.0177,0.0972 0.003,0.0193 0.006,0.0397 0.006,0.085 0,0.0228 0,0.0507 -0.0103,0.10533 -0.005,0.0273 -0.013,0.0618 -0.0341,0.10993 -0.0212,0.0482 -0.13157,0.18196 -0.13181,0.18217 -0.11917,0.10618 -0.3202,0.14446 -0.43506,0.1252 -0.11485,-0.0193 -0.16981,-0.0576 -0.20812,-0.0835 -0.0767,-0.0516 -0.0944,-0.0796 -0.11398,-0.10229 -0.0391,-0.0455 -0.055,-0.0713 -0.0748,-0.10176 -0.0395,-0.061 -0.0793,-0.13018 -0.12925,-0.21984 -0.1,-0.17931 -0.23493,-0.43453 -0.40357,-0.76177 -0.33719,-0.65452 -0.80698,-1.59281 -1.36679,-2.72552 -1.11966,-2.26539 -2.59797,-5.30693 -4.07807,-8.38261 -1.48013,-3.07565 -2.9617,-6.18498 -4.08776,-8.58617 -0.56304,-1.2006 -1.03714,-2.22387 -1.37856,-2.97943 -0.17068,-0.37778 -0.30811,-0.68832 -0.40809,-0.9236 -0.1,-0.23528 -0.15402,-0.33566 -0.19746,-0.52362 -0.17534,-0.7591 -0.0688,-1.53388 0.29821,-2.23801 0.36698,-0.70415 0.97642,-1.34343 1.80038,-1.94033 z m -6.71354,5.24187 c 0.08,5.3e-4 0.16195,0.01 0.24527,0.031 0.33324,0.0847 0.59647,0.38391 0.70022,0.70529 0.55467,1.71815 1.36541,3.46681 6.46213,13.89522 1.5308,3.13208 2.91208,5.99019 3.90459,8.0732 0.49622,1.04151 0.89476,1.88887 1.16784,2.4823 0.13653,0.29673 0.24133,0.52903 0.31292,0.69509 0.0358,0.083 0.0631,0.14808 0.0845,0.20507 0.0106,0.0285 0.0201,0.0528 0.031,0.0921 0.006,0.0196 0.0122,0.0405 0.0182,0.0906 0.005,0.0251 0.008,0.0567 0.003,0.11856 -0.003,0.031 -0.008,0.07 -0.0275,0.12367 -0.0188,0.0536 -0.12314,0.19589 -0.12314,0.19589 -1.8e-4,2.1e-4 -0.26866,0.14346 -0.26866,0.14351 0,0 -0.15949,0.008 -0.21015,-0.003 -0.10142,-0.0214 -0.14092,-0.0504 -0.17151,-0.0697 -0.0612,-0.0384 -0.077,-0.0579 -0.0942,-0.0743 -0.0341,-0.0328 -0.0501,-0.0524 -0.0697,-0.0758 -0.0392,-0.0467 -0.081,-0.10083 -0.13439,-0.1715 -0.10662,-0.14139 -0.25378,-0.34459 -0.44116,-0.60709 -0.37478,-0.52498 -0.90755,-1.28595 -1.5607,-2.22885 -1.30635,-1.88579 -3.09398,-4.49768 -5.04849,-7.38269 -3.78788,-5.5912 -5.76,-8.53623 -6.68605,-10.42775 -0.46304,-0.94576 -0.67386,-1.64972 -0.66918,-2.29603 0.005,-0.6463 0.23498,-1.17592 0.51448,-1.71641 0.38804,-0.75043 0.86384,-1.30893 1.39838,-1.60701 0.13364,-0.0745 0.27736,-0.13609 0.4295,-0.16844 v 0.001 c 0.076,-0.0162 0.15409,-0.0248 0.23407,-0.0244 z"
       style="fill:#000000;stroke-width:0.26458332" />
  </g>
</svg>
