<?xml version="1.0" encoding="UTF-8" standalone="no"?>
<!-- Created with Inkscape (http://www.inkscape.org/) -->

<svg
   xmlns:dc="http://purl.org/dc/elements/1.1/"
   xmlns:cc="http://creativecommons.org/ns#"
   xmlns:rdf="http://www.w3.org/1999/02/22-rdf-syntax-ns#"
   xmlns:svg="http://www.w3.org/2000/svg"
   xmlns="http://www.w3.org/2000/svg"
   xmlns:sodipodi="http://sodipodi.sourceforge.net/DTD/sodipodi-0.dtd"
   xmlns:inkscape="http://www.inkscape.org/namespaces/inkscape"
   width="100.6537mm"
   height="100.6537mm"
   viewBox="0 0 100.6537 100.6537"
   version="1.1"
   id="svg1186"
   inkscape:version="0.92.3 (2405546, 2018-03-11)"
   sodipodi:docname="dacks.svg">
  <defs
     id="defs1180" />
  <sodipodi:namedview
     id="base"
     pagecolor="#ffffff"
     bordercolor="#666666"
     borderopacity="1.0"
     inkscape:pageopacity="0.0"
     inkscape:pageshadow="2"
     inkscape:zoom="1.979899"
     inkscape:cx="76.485902"
     inkscape:cy="191.84888"
     inkscape:document-units="mm"
     inkscape:current-layer="layer1"
     showgrid="false"
     fit-margin-top="0"
     fit-margin-left="0"
     fit-margin-right="0"
     fit-margin-bottom="0"
     inkscape:window-width="2560"
     inkscape:window-height="1379"
     inkscape:window-x="0"
     inkscape:window-y="27"
     inkscape:window-maximized="1" />
  <metadata
     id="metadata1183">
    <rdf:RDF>
      <cc:Work
         rdf:about="">
        <dc:format>image/svg+xml</dc:format>
        <dc:type
           rdf:resource="http://purl.org/dc/dcmitype/StillImage" />
        <dc:title />
      </cc:Work>
    </rdf:RDF>
  </metadata>
  <g
     inkscape:label="Capa 1"
     inkscape:groupmode="layer"
     id="layer1"
     transform="translate(257.4578,-163.51839)">
    <rect
       transform="rotate(90)"
       ry="0.79374999"
       rx="0.79374999"
       y="168.0515"
       x="174.76437"
       height="78.158707"
       width="78.160675"
       id="rect828"
       style="opacity:1;fill:#ffffff;fill-opacity:1;stroke:none;stroke-width:0.79870504;stroke-linecap:round;stroke-linejoin:miter;stroke-miterlimit:4;stroke-dasharray:none;stroke-dashoffset:0;stroke-opacity:1;paint-order:stroke fill markers" />
    <path
       style="opacity:1;fill:#ffffff;fill-opacity:1;stroke:none;stroke-width:3;stroke-linecap:round;stroke-linejoin:miter;stroke-miterlimit:4;stroke-dasharray:none;stroke-dashoffset:0;stroke-opacity:1;paint-order:stroke fill markers"
       d="M 190.20898 1.1367188 C 189.44213 1.1367187 188.6755 1.4319255 188.08789 2.0195312 L 2.0214844 188.08594 C 0.84627292 189.26115 0.84627292 191.15291 2.0214844 192.32812 L 188.09375 378.40039 C 189.26896 379.5756 191.16073 379.5756 192.33594 378.40039 L 378.40234 192.33398 C 379.57756 191.15877 379.57756 189.26506 378.40234 188.08984 L 192.33008 2.0195312 C 191.74247 1.4319255 190.97584 1.1367188 190.20898 1.1367188 z M 41.058594 25.123047 A 16.541249 16.541249 0 0 0 24.515625 41.664062 A 16.541249 16.541249 0 0 0 41.058594 58.205078 A 16.541249 16.541249 0 0 0 57.599609 41.664062 A 16.541249 16.541249 0 0 0 41.058594 25.123047 z M 339.05859 25.123047 A 16.541249 16.541249 0 0 0 322.51758 41.664062 A 16.541249 16.541249 0 0 0 339.05859 58.205078 A 16.541249 16.541249 0 0 0 355.59961 41.664062 A 16.541249 16.541249 0 0 0 339.05859 25.123047 z M 41.058594 323.12305 A 16.541249 16.541249 0 0 0 24.515625 339.66406 A 16.541249 16.541249 0 0 0 41.058594 356.20508 A 16.541249 16.541249 0 0 0 57.599609 339.66406 A 16.541249 16.541249 0 0 0 41.058594 323.12305 z M 339.05859 323.12305 A 16.541249 16.541249 0 0 0 322.51758 339.66406 A 16.541249 16.541249 0 0 0 339.05859 356.20508 A 16.541249 16.541249 0 0 0 355.59961 339.66406 A 16.541249 16.541249 0 0 0 339.05859 323.12305 z "
       transform="matrix(0.26458333,0,0,0.26458333,-257.4578,163.51839)"
       id="circle836" />
    <rect
       ry="0.79374999"
       rx="0.79374999"
       y="175.00781"
       x="-245.96875"
       height="77.673828"
       width="77.675781"
       id="rect826"
       style="opacity:1;fill:#ffffff;fill-opacity:1;stroke:none;stroke-width:0.79374999;stroke-linecap:round;stroke-linejoin:miter;stroke-miterlimit:4;stroke-dasharray:none;stroke-dashoffset:0;stroke-opacity:1;paint-order:stroke fill markers" />
    <path
       style="color:#000000;font-style:normal;font-variant:normal;font-weight:normal;font-stretch:normal;font-size:medium;line-height:normal;font-family:sans-serif;font-variant-ligatures:normal;font-variant-position:normal;font-variant-caps:normal;font-variant-numeric:normal;font-variant-alternates:normal;font-feature-settings:normal;text-indent:0;text-align:start;text-decoration:none;text-decoration-line:none;text-decoration-style:solid;text-decoration-color:#000000;letter-spacing:normal;word-spacing:normal;text-transform:none;writing-mode:lr-tb;direction:ltr;text-orientation:mixed;dominant-baseline:auto;baseline-shift:baseline;text-anchor:start;white-space:normal;shape-padding:0;clip-rule:nonzero;display:inline;overflow:visible;visibility:visible;opacity:1;isolation:auto;mix-blend-mode:normal;color-interpolation:sRGB;color-interpolation-filters:linearRGB;solid-color:#000000;solid-opacity:1;vector-effect:none;fill:#000000;fill-opacity:1;fill-rule:nonzero;stroke:none;stroke-width:3.99999976;stroke-linecap:butt;stroke-linejoin:miter;stroke-miterlimit:4;stroke-dasharray:none;stroke-dashoffset:0;stroke-opacity:1;paint-order:normal;color-rendering:auto;image-rendering:auto;shape-rendering:auto;text-rendering:auto;enable-background:accumulate"
       d="M 190.2168 0 L 188.80078 1.4140625 L 147.71094 42.503906 L 153.36133 42.503906 L 190.21289 5.6523438 L 227.06445 42.503906 L 232.7207 42.503906 L 190.2168 0 z M 190.21094 12.626953 L 188.79688 14.041016 L 160.33398 42.503906 L 165.99219 42.503906 L 190.21094 18.285156 L 214.42969 42.503906 L 220.08789 42.503906 L 190.21094 12.626953 z M 41.578125 22.445312 C 31.152563 22.445312 22.658203 30.939674 22.658203 41.365234 C 22.658203 51.790797 31.152563 60.285156 41.578125 60.285156 C 41.892707 60.285156 42.19888 60.253569 42.509766 60.238281 L 42.509766 56.236328 C 42.200062 56.255343 41.892774 56.283203 41.578125 56.283203 C 33.314301 56.283203 26.658203 49.629058 26.658203 41.365234 C 26.658203 33.101411 33.314301 26.445312 41.578125 26.445312 C 49.841911 26.445312 56.496094 33.101411 56.496094 41.365234 C 56.496094 41.749796 56.467765 42.126824 56.439453 42.503906 L 60.439453 42.503906 C 60.462233 42.124977 60.498047 41.749746 60.498047 41.365234 C 60.498047 30.939674 52.003687 22.445313 41.578125 22.445312 z M 339.57812 22.445312 C 329.15258 22.445312 320.6582 30.939674 320.6582 41.365234 C 320.6582 41.749746 320.69402 42.124977 320.7168 42.503906 L 324.71484 42.503906 C 324.68652 42.126824 324.6582 41.749796 324.6582 41.365234 C 324.6582 33.101411 331.31436 26.445312 339.57812 26.445312 C 347.84195 26.445312 354.49609 33.101411 354.49609 41.365234 C 354.49609 49.629058 347.84195 56.283203 339.57812 56.283203 C 339.01471 56.283203 338.46094 56.245812 337.91406 56.185547 L 337.91406 60.201172 C 338.46372 60.249494 339.01623 60.285156 339.57812 60.285156 C 350.00369 60.285156 358.49609 51.790797 358.49609 41.365234 C 358.49609 30.939674 350.00369 22.445313 339.57812 22.445312 z M 190.5293 43.152344 C 109.00746 43.152344 42.839844 109.32578 42.839844 190.84766 C 42.839844 272.36953 109.00746 338.53711 190.5293 338.53711 C 272.05117 338.53711 338.22656 272.36953 338.22656 190.84766 C 338.22656 109.32578 272.05117 43.152344 190.5293 43.152344 z M 50.355469 50.355469 L 50.355469 112.35742 L 54.201172 113.11719 C 73.873008 65.342748 114.31055 54.283203 114.31055 54.283203 L 113.7793 50.355469 L 50.355469 50.355469 z M 266.88867 50.355469 L 266.35547 54.283203 C 266.35547 54.283203 306.79496 65.342748 326.4668 113.11719 L 330.3125 112.35742 L 330.3125 50.355469 L 266.88867 50.355469 z M 190.5293 51.154297 C 267.72766 51.154297 330.22461 113.64929 330.22461 190.84766 C 330.22461 268.04602 267.72766 330.54297 190.5293 330.54297 C 113.33097 330.54297 50.833984 268.04602 50.833984 190.84766 C 50.833984 113.64929 113.33097 51.154297 190.5293 51.154297 z M 54.355469 54.357422 L 103.96875 54.357422 C 91.500089 60.160168 69.255992 74.221434 54.355469 104.00781 L 54.355469 54.357422 z M 276.69922 54.357422 L 326.3125 54.357422 L 326.3125 104.00781 C 311.41198 74.221434 289.16788 60.160168 276.69922 54.357422 z M 337.91406 147.69727 L 337.91406 153.35547 L 374.76758 190.20898 L 337.91406 227.0625 L 337.91406 232.7207 L 380.42578 190.20898 L 337.91406 147.69727 z M 42.509766 147.70703 L 0.001953125 190.21484 L 42.509766 232.72266 L 42.509766 227.0625 L 5.65625 190.20898 L 42.509766 153.35547 L 42.509766 147.70703 z M 42.509766 160.32812 L 12.628906 190.20898 L 42.509766 220.08984 L 42.509766 214.44336 L 18.28125 190.21484 L 42.509766 165.98633 L 42.509766 160.32812 z M 337.91406 160.33008 L 337.91406 165.98828 L 362.14062 190.21484 L 337.91406 214.44141 L 337.91406 220.09961 L 367.79883 190.21484 L 337.91406 160.33008 z M 54.201172 266.35742 L 50.355469 267.11719 L 50.355469 329.11914 L 113.7793 329.11914 L 114.31055 325.19141 C 114.31055 325.19141 73.873008 314.1319 54.201172 266.35742 z M 326.4668 266.35742 C 306.79496 314.1319 266.35547 325.19141 266.35547 325.19141 L 266.88867 329.11914 L 330.3125 329.11914 L 330.3125 267.11719 L 326.4668 266.35742 z M 54.355469 275.4668 C 69.256029 305.2514 91.500467 319.31467 103.96875 325.11719 L 54.355469 325.11719 L 54.355469 275.4668 z M 326.3125 275.4668 L 326.3125 325.11719 L 276.69922 325.11719 C 289.1675 319.31467 311.41194 305.2514 326.3125 275.4668 z M 41.578125 320.44531 C 31.152563 320.44531 22.658203 328.93967 22.658203 339.36523 C 22.658203 349.79083 31.152563 358.28516 41.578125 358.28516 C 52.003687 358.28516 60.498047 349.79083 60.498047 339.36523 C 60.498047 338.8752 60.460679 338.39488 60.423828 337.91406 L 56.423828 337.91406 C 56.469586 338.3918 56.496094 338.87513 56.496094 339.36523 C 56.496094 347.62906 49.841911 354.2832 41.578125 354.2832 C 33.314301 354.2832 26.658203 347.62906 26.658203 339.36523 C 26.658203 331.10145 33.314301 324.44531 41.578125 324.44531 C 41.892774 324.44531 42.200062 324.47317 42.509766 324.49219 L 42.509766 320.49219 C 42.19888 320.4769 41.892707 320.44531 41.578125 320.44531 z M 339.57812 320.44531 C 339.01623 320.44531 338.46372 320.48098 337.91406 320.5293 L 337.91406 324.54297 C 338.46094 324.48269 339.01471 324.44531 339.57812 324.44531 C 347.84195 324.44531 354.49609 331.10145 354.49609 339.36523 C 354.49609 347.62906 347.84195 354.2832 339.57812 354.2832 C 331.31436 354.2832 324.6582 347.62906 324.6582 339.36523 C 324.6582 338.87513 324.6847 338.3918 324.73047 337.91406 L 320.73242 337.91406 C 320.69557 338.39488 320.6582 338.8752 320.6582 339.36523 C 320.6582 349.79083 329.15258 358.28516 339.57812 358.28516 C 350.00369 358.28516 358.49609 349.79083 358.49609 339.36523 C 358.49609 328.93967 350.00369 320.44531 339.57812 320.44531 z M 147.70117 337.91406 L 190.21094 380.42383 L 232.7207 337.91406 L 227.06445 337.91406 L 190.21289 374.76562 L 153.36133 337.91406 L 147.70117 337.91406 z M 160.33398 337.91406 L 190.2168 367.79688 L 220.09961 337.91406 L 214.44141 337.91406 L 190.21094 362.14453 L 165.98047 337.91406 L 160.33398 337.91406 z "
       transform="matrix(0.26458333,0,0,0.26458333,-257.4578,163.51839)"
       id="circle1062" />
    <path
       style="color:#000000;font-style:normal;font-variant:normal;font-weight:normal;font-stretch:normal;font-size:medium;line-height:normal;font-family:sans-serif;font-variant-ligatures:normal;font-variant-position:normal;font-variant-caps:normal;font-variant-numeric:normal;font-variant-alternates:normal;font-feature-settings:normal;text-indent:0;text-align:start;text-decoration:none;text-decoration-line:none;text-decoration-style:solid;text-decoration-color:#000000;letter-spacing:normal;word-spacing:normal;text-transform:none;writing-mode:lr-tb;direction:ltr;text-orientation:mixed;dominant-baseline:auto;baseline-shift:baseline;text-anchor:start;white-space:normal;shape-padding:0;clip-rule:nonzero;display:inline;overflow:visible;visibility:visible;opacity:1;isolation:auto;mix-blend-mode:normal;color-interpolation:sRGB;color-interpolation-filters:linearRGB;solid-color:#000000;solid-opacity:1;vector-effect:none;fill:#000000;fill-opacity:1;fill-rule:nonzero;stroke:none;stroke-width:1.32291663;stroke-linecap:butt;stroke-linejoin:miter;stroke-miterlimit:4;stroke-dasharray:none;stroke-dashoffset:0;stroke-opacity:1;paint-order:normal;color-rendering:auto;image-rendering:auto;shape-rendering:auto;text-rendering:auto;enable-background:accumulate"
       d="m -247.29102,173.68555 v 0.66211 79.6582 h 80.32032 v -80.32031 z m 1.32227,1.32226 h 77.67578 v 77.67383 h -77.67578 z"
       id="rect1043"
       inkscape:connector-curvature="0" />
    <path
       style="fill:#000000;stroke-width:0.29745546"
       d="m -198.21793,193.20983 c -1.3857,-0.008 -35.08068,11.7678 -35.9265,12.55583 -0.93768,0.87357 -0.74938,2.03772 0.52608,3.25096 2.22903,2.12035 14.04495,11.86614 14.71022,12.13311 1.8746,0.75229 3.05707,0.42693 19.99205,-5.49942 9.13352,-3.19625 16.98974,-6.00951 17.45837,-6.25181 0.85746,-0.44345 1.29979,-1.40785 1.10638,-2.41226 -0.13393,-0.69551 -13.98778,-12.44458 -15.5644,-13.1997 -0.6544,-0.31342 -1.69043,-0.57327 -2.3022,-0.57671 z m 0.34314,1.14308 c 0.47247,0.0473 1.51154,0.70848 1.51154,0.70848 0,0 13.27679,10.67781 13.702,11.24479 0.42524,0.56695 0.42524,1.03973 0.33073,1.37046 -0.0945,0.33073 -1.18133,0.80306 -1.18133,0.80306 0,0 -30.47426,10.30005 -32.3169,10.86702 -1.84264,0.56695 -2.64573,1.1e-4 -3.2127,-0.23614 -0.56695,-0.23622 -13.5599,-11.33938 -13.5599,-11.33938 0,0 -0.1891,-0.70861 0.23614,-1.22833 0,0 34.01796,-12.23721 34.49042,-12.18996 z m -0.79581,1.7167 c -0.21796,0.009 -0.44858,0.0565 -0.68575,0.15864 l 0.0156,-0.007 c -0.0425,0.0161 -0.59978,0.21219 -1.46037,0.51107 -0.86055,0.2989 -2.05446,0.71233 -3.46852,1.2015 -2.82808,0.97829 -6.53743,2.25927 -10.22623,3.53258 -7.37761,2.54664 -14.67302,5.06222 -14.67302,5.06222 l -0.0403,0.014 -0.0362,0.0222 c -0.34007,0.20994 -0.54636,0.52615 -0.5819,0.84801 -0.0355,0.32187 0.091,0.63421 0.33023,0.83355 0.93625,0.7802 3.64794,3.00257 6.19239,5.05862 1.27222,1.02801 2.50171,2.01379 3.4463,2.75693 0.47228,0.37155 0.87321,0.68202 1.17459,0.90847 0.15071,0.11322 0.27615,0.20511 0.37621,0.27491 0.10007,0.0698 0.1396,0.10842 0.26356,0.15917 l -0.0341,-0.0161 c 0.3224,0.1706 0.67604,0.37581 1.16996,0.4563 0.4939,0.0805 1.09998,0.0319 1.94562,-0.22376 0.8655,-0.2617 7.92678,-2.59633 14.83113,-4.88344 6.90433,-2.28711 13.60588,-4.51289 13.60588,-4.51289 l 0.0164,-0.006 0.0161,-0.006 c 0.54755,-0.23919 0.97017,-0.55759 1.16274,-1.00976 0.19253,-0.45217 0.0811,-0.98642 -0.25993,-1.44745 l -0.003,-0.003 -0.003,-0.003 c -0.0797,-0.1044 -0.13415,-0.14303 -0.2403,-0.23669 -0.10615,-0.0937 -0.2459,-0.21172 -0.41597,-0.35293 -0.34015,-0.28242 -0.80188,-0.65619 -1.34515,-1.09037 -1.08648,-0.86834 -2.49766,-1.9784 -3.89744,-3.07322 -2.79958,-2.18964 -5.55212,-4.31755 -5.55212,-4.31755 -0.0735,-0.0668 -0.63127,-0.55261 -1.41076,-0.60669 -0.0697,-0.005 -0.14079,-0.006 -0.21341,-0.003 z m 0.0506,0.76533 c 0.0464,0 0.0917,0 0.13642,0.004 0.53652,0.045 0.94205,0.4222 0.94205,0.4222 l 0.0135,0.013 0.0151,0.0114 c 0,0 2.75111,2.12707 5.5485,4.31499 1.39867,1.09394 2.80874,2.20339 3.89123,3.06853 0.54123,0.43256 1.00092,0.80428 1.33429,1.08108 0.16669,0.13838 0.30224,0.2531 0.39841,0.33796 0.0945,0.0834 0.16455,0.16303 0.13592,0.12507 0.23558,0.31956 0.24773,0.50733 0.17002,0.68987 -0.0775,0.18201 -0.31832,0.41029 -0.75861,0.6041 -0.0259,0.009 -6.68843,2.22154 -13.57903,4.5041 -6.90396,2.28701 -14.05617,4.64884 -14.81151,4.87723 -0.7752,0.23439 -1.25248,0.25789 -1.60144,0.20103 -0.34896,-0.0569 -0.59738,-0.19865 -0.93483,-0.37725 l -0.0164,-0.009 -0.0169,-0.007 c 0.0616,0.0251 -0.0279,-0.0177 -0.11526,-0.0786 -0.0873,-0.0609 -0.20796,-0.14881 -0.35448,-0.2589 -0.29306,-0.22019 -0.69083,-0.52901 -1.16068,-0.89866 -0.93972,-0.7393 -2.16881,-1.72389 -3.43958,-2.75074 -2.54151,-2.05369 -5.25674,-4.27847 -6.18361,-5.05084 -0.0378,-0.0316 -0.0662,-0.09 -0.0584,-0.16124 0.007,-0.0678 0.0549,-0.16274 0.21188,-0.26664 0.0642,-0.0222 7.26286,-2.50463 14.60791,-5.04003 3.68887,-1.27333 7.39833,-2.55471 10.22675,-3.53311 1.4142,-0.48919 2.6079,-0.90239 3.46904,-1.20147 0.86113,-0.29909 1.35972,-0.47212 1.48156,-0.51832 l 0.007,-0.003 0.008,-0.004 c 0.14825,-0.0638 0.29443,-0.0923 0.43358,-0.0961 z m -37.18793,12.8116 c -0.0795,0.0795 -0.0631,0.46921 0.0367,0.86662 0.23222,0.9253 14.883,13.23697 16.43983,13.81519 2.27166,0.84368 3.53838,0.50525 21.18474,-5.66478 9.24346,-3.23197 17.19673,-6.10082 17.67438,-6.37532 0.80563,-0.46294 1.62586,-1.96567 1.26815,-2.32336 -0.086,-0.086 -0.53462,0.1216 -0.99738,0.46093 -0.46273,0.33938 -8.47111,3.31219 -17.79632,6.60633 -15.17465,5.36038 -17.16024,5.99162 -18.90893,6.01411 -1.50717,0.0193 -2.20604,-0.12364 -3.05718,-0.62582 -0.60687,-0.35809 -4.38758,-3.41098 -8.40155,-6.78458 -4.01397,-3.37362 -7.36298,-6.0688 -7.44244,-5.98932 z m 56.78414,2.74299 -0.74105,0.67799 c -1.00081,0.91631 -34.28881,12.59393 -36.4572,12.78941 -2.9287,0.26403 -3.58638,-0.11105 -10.65723,-6.08129 -3.58392,-3.02604 -7.01805,-5.90391 -7.63156,-6.39495 l -1.1152,-0.89244 v 0.87693 c 0,0.78174 0.8236,1.5689 7.57576,7.23831 4.16677,3.49862 8.01524,6.52114 8.55195,6.7164 2.5749,0.93678 3.16111,0.78332 21.48086,-5.61465 9.71423,-3.39259 17.53414,-6.28343 17.92242,-6.62596 0.37883,-0.33416 0.77489,-1.0764 0.88006,-1.64898 z m -0.0858,3.01945 -0.69041,0.64855 c -0.43426,0.40796 -7.08477,2.92039 -17.92189,6.77013 -15.46783,5.49471 -17.42922,6.12301 -19.16525,6.13968 -1.42397,0.0138 -2.24759,-0.14793 -3.1233,-0.61185 -0.65416,-0.34652 -4.40177,-3.35467 -8.32819,-6.68488 -5.62366,-4.76964 -7.15965,-5.93458 -7.23678,-5.48957 -0.0538,0.31072 -0.0296,0.74234 0.0538,0.95964 0.18357,0.47829 14.31112,12.38673 15.3634,12.95011 0.40899,0.219 1.14477,0.50112 1.63555,0.62735 0.4908,0.12621 1.54553,0.16288 2.34352,0.0816 1.41584,-0.14411 34.58538,-11.57351 35.81331,-12.34035 0.70929,-0.44299 1.25627,-1.49566 1.25627,-2.41792 z m -56.38882,3.37656 c -0.11909,0.018 -0.12467,0.20516 -0.12298,0.50901 0.003,0.45587 0.10253,0.97057 0.22273,1.14411 0.12017,0.17354 3.54412,3.10306 7.60883,6.50967 5.07214,4.25098 7.77814,6.32053 8.62634,6.59805 2.40552,0.78714 3.68025,0.44223 21.39302,-5.78673 9.28664,-3.26575 17.20591,-6.14812 17.59842,-6.4053 0.66357,-0.43481 1.3176,-2.11627 0.96168,-2.47218 -0.0865,-0.0865 -0.45278,0.11779 -0.81389,0.45423 -0.36107,0.33642 -1.40734,0.87048 -2.32492,1.1865 -0.9176,0.31605 -8.62872,3.01009 -17.13592,5.9867 -9.22824,3.22895 -16.0677,5.46386 -16.95503,5.54075 -2.52571,0.21891 -3.78254,-0.48673 -9.58392,-5.38314 -2.90754,-2.45403 -6.25713,-5.30341 -7.44398,-6.3319 -1.31836,-1.14242 -1.83186,-1.58006 -2.03038,-1.54977 z m 56.28701,3.12693 c -0.12274,0.0185 -0.34441,0.16227 -0.59635,0.39894 -0.94853,0.89106 -34.26981,12.57334 -36.41431,12.76667 -2.97307,0.26802 -3.50557,-0.0481 -11.6949,-6.94481 -6.828,-5.75019 -8.10723,-6.65009 -7.60934,-5.35263 0.18669,0.48644 14.29994,12.38965 15.36806,12.96146 0.40899,0.219 1.14477,0.50168 1.63555,0.62789 0.4908,0.12623 1.54553,0.1629 2.34352,0.0817 1.41584,-0.14412 34.58538,-11.57349 35.81331,-12.34033 0.61166,-0.382 1.25627,-1.46981 1.25627,-2.12029 0,-0.0461 -0.0199,-0.0718 -0.0553,-0.0786 -0.0132,-0.003 -0.029,-0.003 -0.0465,0 z"
       id="path1151"
       inkscape:connector-curvature="0" />
  </g>
</svg>
