<svg width="19" height="19" viewBox="0 0 19 19" xmlns="http://www.w3.org/2000/svg">
<path d="M15.7069 0.293201C15.6141 0.200255 15.5039 0.126518 15.3826 0.0762068C15.2613 0.0258961 15.1312 0 14.9999 0C14.8686 0 14.7385 0.0258961 14.6172 0.0762068C14.4959 0.126518 14.3857 0.200255 14.2929 0.293201L1.2929 13.2932C1.16496 13.4213 1.07408 13.5816 1.0299 13.7572L0.0298982 17.7572C-0.0120022 17.9247 -0.0098285 18.1002 0.0362077 18.2666C0.0822439 18.4329 0.170574 18.5846 0.292602 18.7067C0.414629 18.8288 0.566196 18.9173 0.732551 18.9635C0.898906 19.0096 1.07438 19.012 1.2419 18.9702L5.2419 17.9702C5.4179 17.9262 5.5789 17.8352 5.7069 17.7072L18.7069 4.7072C18.7998 4.61441 18.8736 4.50421 18.9239 4.38289C18.9742 4.26158 19.0001 4.13153 19.0001 4.0002C19.0001 3.86887 18.9742 3.73882 18.9239 3.61751C18.8736 3.49619 18.7998 3.38599 18.7069 3.2932L15.7069 0.293201ZM4.4879 16.0972L2.3739 16.6252L2.9029 14.5112L11.9999 5.4142L13.5859 7.0002L4.4879 16.0972ZM14.9999 5.5862L13.4139 4.0002L14.9999 2.4142L16.5859 4.0002L14.9999 5.5862Z"/>
</svg>
