<svg xmlns="http://www.w3.org/2000/svg" width="22" height="14">
  <path d="M19.913467-.007084l-3.114639 1.833256C15.122875.75487 13.139204.125 11 .125 6.4167.125 2.501846 2.97583.916016 7c.546328 1.386362 1.375498 2.626603 2.408203 3.664062l-1.939453 1.271485L2.821034 13.9814 21.109375 1.9375zM11 2.416016c1.185801 0 2.255171.460996 3.064453 1.203125l-1.609375 1.05664C12.032783 4.40944 11.53628 4.25 11 4.25 9.48295 4.25 8.25 5.48292 8.25 7c0 .138171.031035.267707.050781.40039L6.683594 8.460939C6.52505 7.99992 6.416016 7.515394 6.416016 7c0-2.53 2.054014-4.583984 4.583984-4.583984zm9.164062 2.785156l-4.808593 3.154297C14.774223 10.219752 13.054868 11.583984 11 11.583984c-.168515 0-.328367-.03303-.492188-.05078l-2.794921 1.833984C8.749149 13.697328 9.854175 13.875 11 13.875c4.5834 0 8.498084-2.8508 10.083984-6.875-.249104-.632095-.562535-1.231133-.919922-1.798828z"/>
</svg>
