<svg width="22" height="14" viewBox="0 0 22 14" fill="none" xmlns="http://www.w3.org/2000/svg">
<path d="M10.0833 0C5.5 0 1.58583 2.85083 0 6.875C1.58583 10.8992 5.5 13.75 10.0833 13.75C14.6667 13.75 18.5808 10.8992 20.1667 6.875C18.5808 2.85083 14.6713 0 10.0833 0ZM10.0833 11.4583C7.55333 11.4583 5.5 9.405 5.5 6.875C5.5 4.345 7.55333 2.29167 10.0833 2.29167C12.6133 2.29167 14.6667 4.345 14.6667 6.875C14.6667 9.405 12.6133 11.4583 10.0833 11.4583ZM10.0833 4.125C8.56625 4.125 7.33333 5.35792 7.33333 6.875C7.33333 8.39208 8.56625 9.625 10.0833 9.625C11.6004 9.625 12.8333 8.39208 12.8333 6.875C12.8333 5.35792 11.6004 4.125 10.0833 4.125Z" transform="translate(0.916504 0.125)" fill="black"/>
</svg>
