<svg width="60" height="60" viewBox="0 0 60 60" fill="none" xmlns="http://www.w3.org/2000/svg">
<path d="M2.98401 0C1.3397 0 0 1.3397 0 2.98401C0 4.62833 1.3397 5.96802 2.98401 5.96802C4.62832 5.96802 5.96802 4.62833 5.96802 2.98401C5.96802 1.3397 4.62832 0 2.98401 0ZM2.98401 0.631032C4.28737 0.631032 5.33699 1.68065 5.33699 2.98401C5.33699 4.28737 4.28737 5.33699 2.98401 5.33699C1.68065 5.33699 0.631032 4.28737 0.631032 2.98401C0.631032 1.68065 1.68065 0.631032 2.98401 0.631032Z" transform="translate(50.5735 50.5402)" fill="black"/>
<path d="M2.98401 0C1.3397 0 0 1.3397 0 2.98401C0 4.62833 1.3397 5.96802 2.98401 5.96802C4.62832 5.96802 5.96802 4.62833 5.96802 2.98401C5.96802 1.3397 4.62832 0 2.98401 0ZM2.98401 0.631032C4.28737 0.631032 5.33699 1.68065 5.33699 2.98401C5.33699 4.28737 4.28737 5.33699 2.98401 5.33699C1.68065 5.33699 0.631032 4.28737 0.631032 2.98401C0.631032 1.68065 1.68065 0.631032 2.98401 0.631032Z" transform="translate(3.57324 50.5402)" fill="black"/>
<path d="M2.98401 0C1.3397 0 0 1.3397 0 2.98401C0 4.62832 1.3397 5.96802 2.98401 5.96802C4.62832 5.96802 5.96802 4.62832 5.96802 2.98401C5.96802 1.3397 4.62832 0 2.98401 0ZM2.98401 0.631032C4.28737 0.631032 5.33699 1.68065 5.33699 2.98401C5.33699 4.28737 4.28737 5.33699 2.98401 5.33699C1.68065 5.33699 0.631032 4.28737 0.631032 2.98401C0.631032 1.68065 1.68065 0.631032 2.98401 0.631032Z" transform="translate(50.5735 3.54002)" fill="black"/>
<path d="M2.98401 0C1.3397 0 0 1.3397 0 2.98401C0 4.62832 1.3397 5.96802 2.98401 5.96802C4.62832 5.96802 5.96802 4.62832 5.96802 2.98401C5.96802 1.3397 4.62832 0 2.98401 0ZM2.98401 0.631032C4.28737 0.631032 5.33699 1.68065 5.33699 2.98401C5.33699 4.28737 4.28737 5.33699 2.98401 5.33699C1.68065 5.33699 0.631032 4.28737 0.631032 2.98401C0.631032 1.68065 1.68065 0.631032 2.98401 0.631032Z" transform="translate(3.57324 3.54002)" fill="black"/>
<path d="M30.0004 0L29.7773 0.223111L0 30.0004L29.9996 60L60 29.9996L30.0004 0ZM29.9998 0.8916L59.1078 29.9996L29.9998 59.1076L0.891818 29.9996L29.9998 0.8916Z" fill="black"/>
<path d="M28.0081 0L27.785 0.223102L0 28.0081L28.0089 56.0171L56.0171 28.0089L28.0081 0ZM28.0081 0.892409L55.1246 28.0089L28.0081 55.1255L0.891591 28.0089L28.0081 0.892409Z" transform="translate(1.99146 1.99147)" fill="black"/>
<path d="M0 0V0.394686V47.8792H47.8792V0H0ZM0.788208 0.788208H47.091V47.0899H0.788208V0.788208Z" transform="translate(6.06006 6.06065)" fill="black"/>
<path d="M45.8297 0H0.473156C0.211838 0 0 0.211838 0 0.473156V45.8285C0 46.0898 0.211838 46.3017 0.473156 46.3017H45.8297C46.091 46.3017 46.3028 46.0898 46.3028 45.8285V0.473156C46.3028 0.211838 46.091 0 45.8297 0Z" transform="translate(6.84839 6.84887)" fill="white"/>
<path d="M23.2935 0C10.4359 0 0 10.4371 0 23.2946C0 36.1522 10.4359 46.5881 23.2935 46.5881C36.151 46.5881 46.5881 36.1522 46.5881 23.2946C46.5881 10.4371 36.151 0 23.2935 0ZM23.2935 1.26206C35.4691 1.26206 45.326 11.119 45.326 23.2946C45.326 35.4703 35.4691 45.3272 23.2935 45.3272C11.1178 45.3272 1.2609 35.4703 1.2609 23.2946C1.2609 11.119 11.1178 1.26206 23.2935 1.26206Z" transform="translate(6.75635 6.80579)" fill="black"/>
<path d="M13.3784 0.00167515C12.7983 -0.0224671 11.9519 0.216768 11.4663 0.562514C11.0485 0.86003 0.9996 13.6536 0.443685 14.5958C0.23149 14.9554 0.110234 15.4624 0.0656809 16.1771L0 17.229L2.00965 22.5865C3.1148 25.5331 4.08813 28.0739 4.17311 28.2327C4.45991 28.7685 5.52823 29.8251 6.05321 30.0927C6.55999 30.351 18.6319 34.944 19.8096 35.3266C20.6043 35.5846 21.1556 35.58 22.0707 35.3081C22.9155 35.0572 23.1266 34.8638 30.9092 27.2121C32.8925 25.2621 34.7591 23.4557 35.0569 23.1981C35.7893 22.5646 36.2064 21.6595 36.2064 20.7039C36.2064 19.7895 36.4674 20.3275 32.7017 13.4781C29.3783 7.43321 28.9492 6.84054 27.2963 6.01159C25.6468 5.18435 14.0729 0.12505 13.6085 0.0281713C13.5383 0.0135071 13.4612 0.00439075 13.3784 0.000992959V0.00167515ZM13.1471 1.39489C13.6732 1.37862 14.8932 1.86864 20.3835 4.302C26.2057 6.88247 27.0798 7.31252 27.7678 7.93677C28.4445 8.55078 28.9171 9.31287 31.3275 13.6723C34.5409 19.4859 34.6336 19.6595 34.541 19.7522C34.5027 19.7904 33.5641 19.4499 32.455 18.9955C31.346 18.5411 30.3301 18.191 30.1975 18.2176C30.0526 18.2466 30.8807 18.9074 32.2728 19.8734C33.5467 20.7575 34.5889 21.5579 34.5889 21.6524C34.5889 21.7469 32.8264 23.5368 30.6725 25.6297C28.5187 27.7225 25.7358 30.4271 24.4886 31.6403C23.2413 32.8536 22.0424 33.9264 21.824 34.0239C21.6057 34.1213 21.1955 34.1993 20.9124 34.1972C20.3884 34.193 7.86929 29.5565 7.45533 29.213C6.94692 28.791 7.22712 27.8503 8.39061 26.0704C9.35369 24.5971 9.36949 24.31 8.44922 25.015C6.39814 26.5865 5.47452 26.9902 5.00493 26.5206C4.882 26.3977 4.0101 24.2396 3.06745 21.7245C1.19972 16.7413 1.05924 16.096 1.63638 15.1495C2.10074 14.388 11.9519 1.80853 12.2443 1.60372C12.393 1.49958 12.799 1.40565 13.1471 1.39489H13.1471ZM13.741 2.54141C13.5571 2.47158 14.3391 3.93193 15.995 6.88729C17.2538 9.13386 18.3476 11.1884 18.4253 11.4532C18.6093 12.0797 18.4753 12.8582 18.0727 13.5043C17.8955 13.7888 16.3606 15.6913 14.6621 17.7325C12.9636 19.7737 11.5215 21.5376 11.4569 21.6524C11.3922 21.7672 11.3836 21.8612 11.4384 21.8612C11.584 21.8612 12.3761 21.1357 15.986 17.6934C19.2317 14.5984 19.9342 14.0769 20.8685 14.0705C21.1355 14.0675 22.3784 14.5196 23.7365 15.1117C27.7427 16.8582 27.7642 16.8069 24.0542 14.3521C22.5469 13.3547 21.0068 12.2374 20.6318 11.8691C20.2569 11.5008 18.7499 9.47885 17.2828 7.37596C15.0749 4.21101 13.9249 2.61124 13.7409 2.54141H13.741ZM17.7461 4.26651C17.5168 4.26353 17.3576 4.40387 17.2226 4.70016C16.8956 5.41775 17.7986 7.31662 18.74 7.89065C19.2917 8.22702 19.6021 8.25969 19.8534 8.00835C20.4495 7.41227 19.3691 5.00554 18.2443 4.42387C18.0462 4.32146 17.8838 4.26831 17.7461 4.26651ZM10.9777 6.13477C10.0849 6.17984 9.14786 7.1049 9.14786 8.48163C9.14786 9.17748 9.44787 9.83385 9.91515 10.1612C11.3072 11.1362 13.0738 8.88936 12.3247 7.09672C12.0328 6.39793 11.5134 6.10775 10.9777 6.13477ZM23.7355 8.33197C22.4901 8.33197 23.2814 11.1009 24.7897 12.0206C25.3487 12.3614 25.525 12.3709 25.7706 12.075C26.2583 11.4873 25.6494 9.8221 24.5998 8.87388C24.2698 8.5757 23.8808 8.33196 23.7355 8.33196V8.33197ZM13.5594 11.7141C12.5397 11.7141 11.7953 12.687 11.7953 14.016C11.7953 14.8276 12.1979 15.6198 12.7146 15.8275C13.1928 16.0198 13.3829 16.0069 13.9392 15.7429C15.7272 14.8945 15.4274 11.7141 13.5594 11.7141ZM29.4704 12.805C29.2094 12.808 29.0044 12.94 28.9268 13.1848C28.6958 13.9126 29.6553 15.8569 30.5181 16.4096C31.0895 16.7757 31.2617 16.7848 31.5795 16.467C32.2127 15.8338 31.188 13.5682 29.9857 12.9429C29.8039 12.8482 29.6271 12.8032 29.4704 12.805V12.805ZM4.92743 13.1854C4.09545 13.1884 3.12913 14.429 3.12185 15.5057C3.11768 16.1544 3.45235 16.9164 3.87083 17.2095C4.31091 17.5177 5.08552 17.5165 5.55864 17.2065C6.3917 16.6607 6.76844 15.0117 6.27744 14.0622C6.04546 13.6136 5.38478 13.1845 4.92743 13.1854V13.1854ZM7.72154 18.782C7.36948 18.7544 6.99213 18.8734 6.63888 19.1706C5.51833 20.1135 5.46141 22.0582 6.53243 22.8084C7.60632 23.5605 9.14786 22.3524 9.14786 20.7585C9.14786 19.6128 8.49603 18.8425 7.72154 18.782ZM21.4519 22.4268C19.5511 22.5142 17.9214 25.1465 19.4659 26.5893C19.8336 26.9327 20.0452 27.0081 20.6414 27.0081C21.0413 27.0081 21.5536 26.9123 21.7802 26.7951C22.6487 26.346 23.4083 25.1194 23.4113 24.1625C23.4113 23.6743 22.9404 22.8822 22.5174 22.6634C22.1652 22.4813 21.8039 22.4106 21.4519 22.4268Z" transform="translate(12.2476 12.2779)" fill="#1C1C1C"/>
<path fill-rule="evenodd" clip-rule="evenodd" d="M0 0V9.77866L0.606582 9.89858C3.70921 2.36364 10.0872 0.619389 10.0872 0.619389L10.0034 0H0ZM0.631032 0.631032H8.45606C6.48951 1.54624 2.98113 3.764 0.631032 8.46188V0.631032Z" transform="translate(7.94165 7.94211)" fill="black"/>
<path fill-rule="evenodd" clip-rule="evenodd" d="M0.606582 0L0 0.119919V9.89858H10.0034L10.0872 9.27919C10.0872 9.27919 3.70921 7.53495 0.606582 0ZM0.631023 1.4367C2.98113 6.13431 6.48956 8.35238 8.45605 9.26755H0.631023V1.4367Z" transform="translate(7.94165 42.0097)" fill="black"/>
<path fill-rule="evenodd" clip-rule="evenodd" d="M0.0838271 0L0 0.619389C0 0.619389 6.37799 2.36364 9.48061 9.89858L10.0872 9.77866V0H0.0838271ZM1.63114 0.631032H9.45616V8.46188C7.10607 3.764 3.59768 1.54624 1.63114 0.631032Z" transform="translate(42.0093 7.94211)" fill="black"/>
<path fill-rule="evenodd" clip-rule="evenodd" d="M9.48061 0C6.37799 7.53495 0 9.27919 0 9.27919L0.0838271 9.89858H10.0872V0.119919L9.48061 0ZM9.45617 1.4367V9.26755H1.63114C3.59762 8.35238 7.10607 6.13431 9.45617 1.4367Z" transform="translate(42.0093 42.0097)" fill="black"/>
</svg>
