<svg xmlns="http://www.w3.org/2000/svg" width="380.423" height="380.423" viewBox="0 0 100.654 100.654"><g transform="translate(257.458 -163.518)"><rect transform="rotate(90)" ry=".794" rx=".794" y="168.052" x="174.764" height="78.159" width="78.161" fill="#fff" paint-order="stroke fill markers"/><path d="M-207.132 163.82a.792.792 0 0 0-.56.233l-49.23 49.23a.792.792 0 0 0 0 1.122l49.23 49.232c.312.31.812.31 1.123 0l49.23-49.23a.792.792 0 0 0 0-1.123l-49.231-49.231a.792.792 0 0 0-.562-.234zm-39.462 6.346a4.377 4.377 0 0 0-4.377 4.376 4.377 4.377 0 0 0 4.377 4.376 4.377 4.377 0 0 0 4.376-4.376 4.377 4.377 0 0 0-4.376-4.376zm78.845 0a4.377 4.377 0 0 0-4.376 4.376 4.377 4.377 0 0 0 4.376 4.376 4.377 4.377 0 0 0 4.377-4.376 4.377 4.377 0 0 0-4.377-4.376zm-78.845 78.845a4.377 4.377 0 0 0-4.377 4.377 4.377 4.377 0 0 0 4.377 4.376 4.377 4.377 0 0 0 4.376-4.376 4.377 4.377 0 0 0-4.376-4.377zm78.845 0a4.377 4.377 0 0 0-4.376 4.377 4.377 4.377 0 0 0 4.376 4.376 4.377 4.377 0 0 0 4.377-4.376 4.377 4.377 0 0 0-4.377-4.377z" fill="#fff" paint-order="stroke fill markers"/><rect ry=".794" rx=".794" y="175.008" x="-245.969" height="77.674" width="77.676" fill="#fff" paint-order="stroke fill markers"/><path style="line-height:normal;font-variant-ligatures:normal;font-variant-position:normal;font-variant-caps:normal;font-variant-numeric:normal;font-variant-alternates:normal;font-feature-settings:normal;text-indent:0;text-align:start;text-decoration-line:none;text-decoration-style:solid;text-decoration-color:#000;text-transform:none;text-orientation:mixed;shape-padding:0;isolation:auto;mix-blend-mode:normal" d="M-207.13 163.518l-.374.375-10.872 10.871h1.495l9.75-9.75 9.75 9.75h1.497l-11.246-11.246zm-.001 3.341l-.374.374-7.531 7.531h1.497l6.408-6.408 6.408 6.408h1.497l-7.905-7.905zm-39.326 2.598a5.014 5.014 0 0 0-5.006 5.006 5.014 5.014 0 0 0 5.006 5.006c.083 0 .164-.009.247-.013v-1.058c-.082.005-.164.012-.247.012a3.94 3.94 0 0 1-3.947-3.947 3.94 3.94 0 0 1 3.947-3.948 3.94 3.94 0 0 1 3.947 3.948c0 .102-.007.201-.015.301h1.058c.006-.1.016-.2.016-.301a5.014 5.014 0 0 0-5.006-5.006zm78.846 0a5.014 5.014 0 0 0-5.006 5.006c0 .102.01.201.016.301h1.057c-.007-.1-.015-.2-.015-.301a3.94 3.94 0 0 1 3.948-3.948 3.94 3.94 0 0 1 3.947 3.948 3.939 3.939 0 0 1-4.387 3.921v1.063c.145.012.291.022.44.022a5.013 5.013 0 0 0 5.005-5.006 5.013 5.013 0 0 0-5.005-5.006zm-39.436 5.479c-21.57 0-39.076 17.508-39.076 39.077 0 21.57 17.507 39.077 39.076 39.077 21.57 0 39.078-17.507 39.078-39.077 0-21.569-17.509-39.077-39.078-39.077zm-37.088 1.906v16.404l1.018.201c5.205-12.64 15.904-15.566 15.904-15.566l-.14-1.04h-16.782zm57.291 0l-.14 1.039s10.699 2.926 15.904 15.566l1.017-.2v-16.405h-16.78zm-20.203.211c20.425 0 36.961 16.535 36.961 36.96 0 20.426-16.536 36.962-36.96 36.962-20.426 0-36.962-16.536-36.962-36.962 0-20.425 16.536-36.96 36.961-36.96zm-36.03.847h13.128c-3.3 1.536-9.185 5.256-13.127 13.137V177.9zm58.83 0h13.126v13.137c-3.942-7.88-9.828-11.601-13.127-13.137zm16.196 24.697v1.497l9.75 9.75-9.75 9.751v1.497l11.248-11.247-11.248-11.248zm-78.16.002l-11.246 11.247 11.247 11.247v-1.498l-9.751-9.75 9.75-9.751v-1.495zm0 3.34l-7.905 7.906 7.906 7.905v-1.493l-6.41-6.41 6.41-6.411v-1.497zm78.16 0v1.497l6.41 6.41-6.41 6.41v1.497l7.907-7.907-7.907-7.907zm-75.066 28.053l-1.018.201v16.405h16.781l.14-1.04s-10.698-2.926-15.903-15.566zm72.037 0c-5.205 12.64-15.905 15.567-15.905 15.567l.141 1.039h16.781v-16.405l-1.017-.2zm-71.996 2.41c3.942 7.88 9.828 11.602 13.127 13.137h-13.127v-13.137zm71.955 0v13.137h-13.127c3.3-1.535 9.185-5.256 13.127-13.137zm-75.336 11.9a5.014 5.014 0 0 0-5.006 5.007 5.014 5.014 0 0 0 5.006 5.006 5.014 5.014 0 0 0 5.006-5.006c0-.13-.01-.257-.02-.384h-1.058a3.939 3.939 0 0 1-3.928 4.331 3.94 3.94 0 0 1-3.947-3.947 3.94 3.94 0 0 1 3.947-3.948c.083 0 .165.008.247.013v-1.059c-.083-.004-.164-.012-.247-.012zm78.846 0c-.149 0-.295.01-.44.023v1.062a3.94 3.94 0 0 1 4.387 3.922 3.939 3.939 0 0 1-3.947 3.947 3.94 3.94 0 0 1-3.929-4.331h-1.057c-.01.127-.02.254-.02.384a5.014 5.014 0 0 0 5.006 5.006 5.013 5.013 0 0 0 5.005-5.006 5.013 5.013 0 0 0-5.005-5.006zm-50.768 4.623l11.248 11.247 11.247-11.247h-1.496l-9.75 9.75-9.75-9.75h-1.499zm3.343 0l7.906 7.906 7.907-7.906h-1.497l-6.411 6.41-6.411-6.41h-1.494z" color="#000" font-weight="400" font-family="sans-serif" white-space="normal" overflow="visible"/><path style="line-height:normal;font-variant-ligatures:normal;font-variant-position:normal;font-variant-caps:normal;font-variant-numeric:normal;font-variant-alternates:normal;font-feature-settings:normal;text-indent:0;text-align:start;text-decoration-line:none;text-decoration-style:solid;text-decoration-color:#000;text-transform:none;text-orientation:mixed;shape-padding:0;isolation:auto;mix-blend-mode:normal" d="M-247.291 173.686V254.006h80.32v-80.32zm1.322 1.322h77.676v77.674h-77.676z" color="#000" font-weight="400" font-family="sans-serif" white-space="normal" overflow="visible"/><path d="M-214.468 184.118c-.973-.04-2.393.361-3.208.941-.7.5-17.558 21.961-18.491 23.542-.356.603-.56 1.454-.634 2.653l-.11 1.764 3.371 8.988c1.854 4.943 3.487 9.205 3.63 9.472.48.898 2.273 2.67 3.153 3.12.85.433 21.102 8.138 23.078 8.78 1.333.433 2.257.425 3.793-.031 1.417-.421 1.771-.745 14.827-13.582 3.327-3.27 6.458-6.301 6.958-6.733a5.524 5.524 0 0 0 1.928-4.185c0-1.534.438-.63-5.88-12.121-5.574-10.14-6.294-11.135-9.067-12.526-2.767-1.388-22.183-9.875-22.962-10.037a2.37 2.37 0 0 0-.386-.046zm-.388 2.337c.882-.027 2.929.795 12.14 4.877 9.766 4.33 11.233 5.05 12.387 6.098 1.135 1.03 1.928 2.308 5.971 9.622 5.391 9.752 5.547 10.043 5.391 10.199-.064.064-1.639-.507-3.5-1.27-1.86-.762-3.564-1.35-3.786-1.305-.243.05 1.146 1.158 3.481 2.778 2.137 1.483 3.886 2.826 3.886 2.985 0 .158-2.957 3.16-6.57 6.672-3.614 3.51-8.282 8.048-10.374 10.083-2.093 2.035-4.104 3.835-4.47 3.999-.366.163-1.055.294-1.53.29-.879-.007-21.88-7.785-22.575-8.361-.852-.708-.382-2.286 1.57-5.272 1.615-2.471 1.642-2.953.098-1.77-3.441 2.636-4.99 3.313-5.778 2.525-.206-.206-1.67-3.826-3.25-8.045-3.134-8.36-3.37-9.443-2.401-11.03.779-1.278 17.305-22.38 17.795-22.724.25-.175.93-.333 1.515-.35zm.996 1.924c-.309-.117 1.003 2.332 3.781 7.29 2.112 3.769 3.947 7.216 4.077 7.66.309 1.05.084 2.357-.591 3.44-.298.478-2.872 3.67-5.722 7.094-2.85 3.424-5.268 6.383-5.377 6.576-.108.192-.123.35-.03.35.243 0 1.572-1.217 7.628-6.992 5.445-5.192 6.624-6.067 8.19-6.078.449-.005 2.534.754 4.812 1.747 6.72 2.93 6.757 2.844.533-1.274-2.529-1.673-5.112-3.548-5.741-4.165-.63-.618-3.157-4.01-5.618-7.538-3.704-5.31-5.634-7.993-5.942-8.11zm6.719 2.894c-.385-.005-.652.23-.878.727-.549 1.204.966 4.39 2.545 5.352.926.565 1.446.62 1.868.198 1-1-.813-5.037-2.7-6.013-.332-.172-.604-.261-.835-.264zm-11.355 3.134c-1.497.075-3.07 1.627-3.07 3.937 0 1.167.504 2.268 1.288 2.817 2.335 1.636 5.299-2.133 4.042-5.14-.49-1.173-1.361-1.66-2.26-1.614zm21.402 3.686c-2.089 0-.761 4.645 1.769 6.188.938.571 1.233.587 1.645.09.819-.985-.203-3.778-1.964-5.37-.553-.5-1.206-.908-1.45-.908zm-17.07 5.674c-1.711 0-2.96 1.632-2.96 3.861 0 1.362.675 2.69 1.542 3.039.802.323 1.121.301 2.055-.142 2.999-1.423 2.496-6.758-.638-6.758zm26.691 1.83c-.438.005-.782.226-.912.637-.387 1.22 1.222 4.482 2.67 5.41.958.614 1.247.629 1.78.096 1.062-1.062-.657-4.863-2.673-5.912a1.855 1.855 0 0 0-.865-.231zm-41.172.638c-1.396.005-3.017 2.086-3.03 3.892-.006 1.088.555 2.367 1.257 2.858.738.517 2.038.515 2.832-.005 1.397-.915 2.03-3.682 1.205-5.274-.389-.753-1.497-1.473-2.264-1.471zm4.687 9.388c-.59-.046-1.224.154-1.816.652-1.88 1.582-1.975 4.844-.179 6.103 1.802 1.262 4.388-.765 4.388-3.439 0-1.922-1.094-3.214-2.393-3.316zm23.033 6.115c-3.188.146-5.922 4.562-3.331 6.983.617.576.972.702 1.972.702.67 0 1.53-.16 1.91-.357 1.457-.754 2.731-2.811 2.736-4.416 0-.82-.79-2.148-1.5-2.515a3.5 3.5 0 0 0-1.787-.397z"/></g></svg>