<svg width="141" height="21" viewBox="0 0 141 21" fill="none" xmlns="http://www.w3.org/2000/svg">
<path d="M82.7049 0C82.447 0.0234905 82.0482 0.0586681 81.509 0.105646C80.9933 0.152625 80.4077 0.199116 79.7514 0.246094C79.0949 0.293073 78.4027 0.352118 77.6761 0.422585C76.9493 0.469564 76.2459 0.528609 75.566 0.599077C74.9096 0.646056 74.3115 0.692546 73.7724 0.739525C73.2331 0.763011 72.8344 0.786879 72.5766 0.81037H70.5732L71.382 2.43111V2.92454C71.4053 3.20641 71.4166 3.54688 71.4166 3.9462V5.2848C71.4399 5.77808 71.4512 6.24795 71.4512 6.69425V8.24538C71.4512 9.34938 71.4162 10.4173 71.3458 11.4508C71.2989 12.4843 71.24 13.5183 71.1696 14.5518C71.1228 15.5619 71.0651 16.5833 70.9947 17.6168C70.9479 18.6504 70.924 19.707 70.924 20.7875V21L75.0027 19.3793L75.2135 13.1076H79.2226C79.246 13.1546 79.3163 13.2362 79.4336 13.3537C79.5508 13.4711 79.6686 13.588 79.7858 13.7054C79.9265 13.8229 80.0544 13.941 80.1716 14.0584C80.2888 14.1759 80.3716 14.2575 80.4184 14.3045L80.5239 14.3406H80.6641H80.7695L80.8402 14.3045L81.4381 8.84322H81.0511C79.9727 8.84322 78.9997 8.90226 78.1323 9.01971C77.2883 9.13716 76.3279 9.1962 75.2495 9.1962C75.2495 9.14922 75.2378 9.03113 75.2149 8.84322V8.42063C75.2149 7.97434 75.2499 7.51702 75.3203 7.04723C75.4141 6.55396 75.4843 6.08408 75.5312 5.63778C75.4843 5.26196 75.5658 4.99184 75.7768 4.82741C75.9877 4.6395 76.2573 4.5101 76.5856 4.43963C76.9138 4.36916 77.2423 4.3453 77.5705 4.36879H78.3793C79.1998 4.36879 79.8556 4.49819 80.3478 4.75657C80.8637 4.99146 81.2046 5.55556 81.3688 6.44815C81.486 6.37769 81.6026 6.18924 81.7198 5.88388C81.8371 5.57852 81.9424 5.21418 82.0361 4.79137C82.1534 4.36856 82.2474 3.92255 82.3177 3.45277C82.4115 2.9595 82.4816 2.50217 82.5286 2.07937C82.5756 1.63307 82.6108 1.24487 82.634 0.916016C82.6809 0.563678 82.7048 0.328739 82.7048 0.211293L82.7049 0ZM122.279 1.16335C122.232 1.18684 122.149 1.22202 122.032 1.269C121.915 1.29249 121.786 1.32767 121.645 1.37465C121.528 1.39813 121.411 1.43331 121.294 1.48029C121.177 1.52727 121.107 1.56245 121.083 1.58594C120.099 2.05572 119.091 2.60727 118.059 3.24148C117.028 3.8522 116.101 4.58088 115.28 5.42649C114.46 6.24862 113.78 7.17581 113.241 8.20934C112.725 9.21938 112.467 10.3476 112.467 11.5925C112.467 12.2737 112.643 12.9069 112.994 13.4941C113.369 14.0579 113.85 14.5755 114.436 15.0453C115.045 15.5151 115.725 15.9259 116.475 16.2782C117.225 16.6071 117.988 16.8885 118.761 17.1234C119.535 17.3583 120.273 17.5342 120.977 17.6516C121.703 17.7691 122.337 17.8281 122.876 17.8281C123.181 17.8281 123.485 17.6522 123.79 17.2999C124.118 16.9476 124.434 16.489 124.739 15.9252C125.044 15.3615 125.337 14.7396 125.618 14.0584C125.9 13.3772 126.157 12.7189 126.391 12.0847C126.626 11.427 126.838 10.829 127.025 10.2887C127.236 9.74846 127.412 9.33762 127.552 9.05575V8.98491C127.576 8.91444 127.587 8.86671 127.587 8.84322C127.587 8.63181 127.387 8.44461 126.989 8.28018C126.59 8.11576 126.121 7.97505 125.582 7.8576C125.067 7.71666 124.562 7.61113 124.07 7.54066C123.578 7.47019 123.251 7.43501 123.087 7.43501C122.922 7.43501 122.805 7.72776 122.734 8.31499C122.664 8.87873 122.559 9.51319 122.418 10.2179C122.277 10.8991 122.078 11.5335 121.82 12.1207C121.562 12.6845 121.152 12.9659 120.589 12.9659C120.308 12.9659 119.98 12.8717 119.605 12.6838C119.229 12.4724 118.866 12.2148 118.514 11.9094C118.186 11.6041 117.905 11.2749 117.671 10.9226C117.46 10.5468 117.354 10.195 117.354 9.86612C117.354 9.34936 117.541 8.86693 117.916 8.42063C118.315 7.97434 118.796 7.57482 119.359 7.22248C119.945 6.84665 120.577 6.51873 121.257 6.23686C121.937 5.95499 122.559 5.72005 123.121 5.53214C123.707 5.32073 124.188 5.15615 124.563 5.03871C124.961 4.92126 125.161 4.8509 125.161 4.82741C125.161 4.68648 125.044 4.41636 124.81 4.01705C124.575 3.61773 124.306 3.2069 124.001 2.78409C123.719 2.36129 123.426 1.98439 123.121 1.65554C122.84 1.32669 122.629 1.16335 122.489 1.16335H122.279ZM8.68567 1.269C8.19341 1.269 7.63037 1.40971 6.99742 1.69158C6.38797 1.97346 5.75471 2.3378 5.0983 2.78409C4.46527 3.23039 3.84466 3.74675 3.23513 4.33398C2.62564 4.89773 2.07517 5.48445 1.58282 6.09517C1.11397 6.6824 0.726555 7.27037 0.421772 7.8576C0.140487 8.42134 0 8.9264 0 9.37269C0 10.3827 0.387496 11.3338 1.16113 12.2264C1.95818 13.119 2.90735 13.9532 4.00915 14.7283C5.13444 15.48 6.29428 16.1723 7.48988 16.8065C8.7089 17.4172 9.75214 17.9461 10.6196 18.3924H10.6903C10.7371 18.4159 10.7835 18.4272 10.8304 18.4272C11.0648 18.4272 11.2529 18.2865 11.3936 18.0046C11.5343 17.7462 11.6395 17.4409 11.7099 17.0886C11.8036 16.7363 11.8626 16.3958 11.8861 16.0669C11.9094 15.7146 11.9207 15.4671 11.9207 15.3262V14.7283C11.4987 14.4934 10.9245 14.1882 10.1977 13.8123C9.49444 13.413 8.80223 12.9783 8.1224 12.5085C7.46603 12.0153 6.89175 11.4863 6.39941 10.9226C5.90706 10.3354 5.66134 9.73608 5.66134 9.12536C5.66134 8.39719 5.8494 7.7866 6.22449 7.29333C6.59957 6.77656 7.06858 6.34186 7.63123 5.98953C8.21729 5.6137 8.8618 5.29709 9.56505 5.03871C10.2684 4.78033 10.9367 4.53408 11.5696 4.29919L9.10733 1.3386C9.08399 1.3386 9.02516 1.32729 8.93117 1.3038C8.8374 1.28031 8.75594 1.269 8.68556 1.269L8.68567 1.269ZM52.7813 1.62074C51.3748 1.62074 49.9792 1.71496 48.5961 1.90288C47.213 2.0673 45.8186 2.14897 44.412 2.14897V3.70011V5.42649C44.4358 6.22513 44.4594 7.10583 44.4827 8.06889C44.5061 9.00846 44.5174 9.97084 44.5174 10.9574C44.5407 11.9439 44.552 12.8133 44.552 13.565V14.9396C44.552 15.0336 44.5283 15.2447 44.4813 15.5735C44.458 15.9024 44.4115 16.2541 44.3412 16.63C44.2943 16.9823 44.2467 17.3228 44.1997 17.6516C44.1764 17.957 44.1651 18.1454 44.1651 18.2159C44.1651 18.2394 44.1538 18.3098 44.1305 18.4272V18.6385C44.6697 18.6385 45.2791 18.5216 45.9589 18.2868C46.6388 18.0519 47.2482 17.8873 47.7873 17.7933C49.1705 17.5819 50.5661 17.2528 51.9727 16.8065C53.3792 16.3602 54.6444 15.7496 55.7697 14.9744C56.9184 14.1993 57.845 13.2357 58.5483 12.0847C59.275 10.9102 59.6386 9.48929 59.6386 7.82156C59.6386 6.74105 59.4618 5.81385 59.1102 5.03871C58.782 4.24007 58.3143 3.5943 57.7048 3.10103C57.1187 2.58427 56.4028 2.20861 55.5588 1.97372C54.7149 1.73883 53.7895 1.62074 52.7814 1.62074H52.7813ZM134.355 1.79723C133.417 1.79723 132.561 1.91408 131.787 2.14897C131.014 2.38386 130.345 2.75952 129.783 3.27628C129.22 3.76955 128.775 4.41656 128.447 5.2152C128.142 5.99034 127.989 6.91754 127.989 7.99805C127.989 9.64229 128.258 11.0519 128.798 12.2264C129.337 13.3774 130.053 14.3523 130.944 15.1509C131.858 15.9261 132.901 16.5367 134.073 16.983C135.269 17.4293 136.512 17.7584 137.801 17.9698C138.317 18.0403 138.773 18.1571 139.172 18.3216C139.594 18.486 140.051 18.5689 140.544 18.5689C140.544 18.5454 140.532 18.4625 140.509 18.3216V18.1103L140.825 14.481L137.519 13.9528C136.816 13.7414 136.242 13.5529 135.796 13.3885C135.374 13.2006 135.023 13.0008 134.742 12.7894C134.461 12.578 134.226 12.3431 134.039 12.0847C133.875 11.8263 133.698 11.4984 133.51 11.0991L137.554 11.416V11.0991C137.554 10.9112 137.567 10.582 137.59 10.1122C137.613 9.64243 137.73 8.84339 137.941 7.71591H137.519C137.097 7.71591 136.722 7.7046 136.394 7.68111C136.089 7.63413 135.785 7.59895 135.48 7.57546C135.175 7.52848 134.858 7.48199 134.53 7.43502C134.225 7.38804 133.85 7.35162 133.405 7.32813C133.452 6.78787 133.475 6.36573 133.475 6.06037C133.499 5.75501 133.569 5.53138 133.686 5.39045C133.827 5.24952 134.038 5.16785 134.319 5.14436C134.624 5.12086 135.081 5.10955 135.691 5.10955L138.012 5.35565C138.082 5.37914 138.164 5.39045 138.257 5.39045C138.421 5.39045 138.68 5.47336 139.031 5.63779C139.383 5.80221 139.981 6.01328 140.825 6.27166C140.825 5.66094 140.848 5.1672 140.895 4.79137C140.965 4.39206 141 4.06414 141 3.80575V2.29066C140.344 2.29066 139.747 2.26679 139.208 2.21982C138.692 2.17284 138.175 2.11379 137.659 2.04332C137.167 1.97286 136.652 1.91381 136.113 1.86683C135.597 1.81985 135.011 1.79723 134.355 1.79723H134.355ZM38.8387 1.97372C38.7684 1.97372 38.5928 1.99635 38.3115 2.04332C38.0301 2.0903 37.7254 2.13804 37.3973 2.18501C37.0925 2.23199 36.7991 2.27848 36.5178 2.32546C36.2598 2.37244 36.0956 2.39631 36.0253 2.39631C35.8143 2.4198 35.4394 2.45498 34.9002 2.50195C34.361 2.54893 33.7867 2.59542 33.1772 2.6424C32.5911 2.66589 32.0282 2.70107 31.4889 2.74805C30.9498 2.77154 30.5748 2.78409 30.3638 2.78409C30.9265 3.44179 31.2664 4.08756 31.3835 4.72177C31.5242 5.35598 31.5944 6.08342 31.5944 6.90554C31.5944 7.75115 31.548 8.59668 31.4542 9.44229C31.3605 10.2644 31.2551 11.0986 31.1379 11.9442L30.8563 14.4102C30.786 15.2088 30.7509 15.9965 30.7509 16.7717V16.983C30.7742 17.0299 30.8331 17.1003 30.9271 17.1942C31.0208 17.2882 31.1023 17.3472 31.1727 17.3707H31.3835H31.5597C31.7003 17.3472 31.9573 17.2643 32.3324 17.1234C32.7076 16.9825 33.095 16.8179 33.4936 16.63C33.892 16.4186 34.2432 16.2075 34.5479 15.9961C34.8527 15.7612 35.0056 15.5501 35.0056 15.3622V12.1207C35.5683 12.3087 36.0247 12.7195 36.3763 13.3537C36.728 13.9644 37.069 14.6102 37.3973 15.2914C37.7254 15.9491 38.0878 16.537 38.4864 17.0538C38.8849 17.5706 39.4128 17.8281 40.0692 17.8281C40.2567 17.8281 40.5263 17.7578 40.8779 17.6168C41.2531 17.4524 41.628 17.2652 42.003 17.0538C42.4016 16.8189 42.7539 16.584 43.0587 16.3491C43.3869 16.1142 43.5975 15.9144 43.6913 15.75C43.2224 15.656 42.7184 15.3859 42.1792 14.9396C41.6635 14.4698 41.1833 13.9409 40.7378 13.3537C40.3158 12.743 39.9635 12.1324 39.6821 11.5217C39.4009 10.8875 39.2604 10.3472 39.2604 9.90092C39.2604 9.64254 39.3896 9.34856 39.6474 9.01971C39.9053 8.69086 40.1862 8.32652 40.491 7.9272C40.7957 7.52789 41.0778 7.09319 41.3357 6.6234C41.5936 6.13013 41.7215 5.60245 41.7215 5.03871C41.7215 4.14612 41.5108 3.46517 41.0889 2.99538C40.6668 2.50211 39.917 2.16164 38.8387 1.97372ZM107.175 1.97372C107.105 1.97372 106.929 1.99635 106.648 2.04332C106.367 2.0903 106.062 2.13804 105.734 2.18501C105.429 2.23199 105.136 2.27848 104.854 2.32546C104.597 2.37244 104.434 2.39631 104.363 2.39631C104.152 2.4198 103.776 2.45498 103.237 2.50195C102.698 2.54893 102.123 2.59542 101.514 2.6424C100.928 2.66589 100.366 2.70107 99.8268 2.74805C99.2876 2.77154 98.9128 2.78409 98.7017 2.78409C99.2644 3.44179 99.6042 4.08756 99.7214 4.72177C99.8621 5.35598 99.9323 6.08342 99.9323 6.90554C99.9323 7.75115 99.8847 8.59668 99.7909 9.44229C99.6971 10.2644 99.5918 11.0986 99.4745 11.9442L99.193 14.4102C99.1227 15.2088 99.0876 15.9965 99.0876 16.7717V16.983C99.1109 17.0299 99.1697 17.1003 99.2637 17.1942C99.3574 17.2882 99.4402 17.3472 99.5106 17.3707H99.7214H99.8963C100.037 17.3472 100.295 17.2643 100.67 17.1234C101.045 16.9825 101.433 16.8179 101.831 16.63C102.23 16.4186 102.581 16.2075 102.886 15.9961C103.191 15.7612 103.343 15.5501 103.343 15.3622V12.1207C103.906 12.3087 104.363 12.7195 104.714 13.3537C105.066 13.9644 105.406 14.6102 105.734 15.2914C106.062 15.9491 106.426 16.537 106.824 17.0538C107.223 17.5706 107.751 17.8281 108.407 17.8281C108.595 17.8281 108.864 17.7578 109.216 17.6168C109.591 17.4524 109.966 17.2652 110.341 17.0538C110.74 16.8189 111.091 16.584 111.395 16.3491C111.723 16.1142 111.935 15.9144 112.029 15.75C111.56 15.656 111.056 15.3859 110.517 14.9396C110.001 14.4698 109.52 13.9409 109.074 13.3537C108.652 12.743 108.301 12.1324 108.02 11.5217C107.739 10.8875 107.598 10.3472 107.598 9.90092C107.598 9.64254 107.726 9.34856 107.984 9.01971C108.242 8.69086 108.524 8.32652 108.829 7.9272C109.134 7.52789 109.414 7.09319 109.672 6.6234C109.93 6.13013 110.059 5.60245 110.059 5.03871C110.059 4.14612 109.849 3.46517 109.427 2.99538C109.005 2.50211 108.254 2.16164 107.175 1.97372ZM21.0022 2.11417C20.8381 2.56046 20.6262 3.04165 20.3683 3.55842C20.1105 4.05169 19.8409 4.55675 19.5595 5.07351C19.3016 5.59027 19.0445 6.10664 18.7867 6.6234C18.5523 7.14017 18.3767 7.6226 18.2595 8.06889L12.5621 17.582C12.7497 17.629 12.9729 17.6755 13.2307 17.7225C13.4886 17.746 13.7582 17.7698 14.0395 17.7933C14.3208 17.8403 14.5904 17.8755 14.8483 17.899C15.1062 17.9225 15.3406 17.9338 15.5516 17.9338H15.8319L26.0657 17.4764H26.8745H28.2104H29.5464C29.9684 17.4529 30.238 17.429 30.3552 17.4055L29.5464 16.1726C29.3354 15.8672 29.0897 15.3735 28.8083 14.6923C28.527 14.0111 28.2223 13.2359 27.8942 12.3668C27.5893 11.4977 27.2734 10.5705 26.9452 9.58399C26.6169 8.59744 26.2998 7.63382 25.995 6.69425C25.7137 5.75468 25.4554 4.88528 25.2209 4.08665C24.9865 3.28802 24.7997 2.63093 24.659 2.11417L21.0022 2.11417ZM91.0171 2.11417C90.7827 2.13766 90.5369 2.17284 90.279 2.21982C90.0212 2.24331 89.7868 2.27848 89.5757 2.32546C89.3647 2.37244 89.1892 2.41893 89.0485 2.46591C88.9079 2.51289 88.8377 2.56062 88.8377 2.6076C87.9703 3.03041 87.1853 3.45255 86.482 3.87536C85.8021 4.29816 85.2154 4.78059 84.7231 5.32085C84.2308 5.8611 83.8558 6.483 83.598 7.18768C83.34 7.89235 83.2109 8.7492 83.2109 9.75923C83.1876 9.85319 83.1651 10.0881 83.1415 10.464V11.5925C83.1415 11.8509 83.1765 12.1085 83.247 12.3668C83.3173 12.6252 83.375 12.8137 83.4219 12.9311C83.586 13.6358 83.9383 14.2816 84.4775 14.8688C85.0401 15.456 85.6846 15.9724 86.4113 16.4187C87.1381 16.865 87.9004 17.218 88.6975 17.4764C89.4946 17.7113 90.2318 17.8281 90.9117 17.8281C91.9198 17.8281 92.8577 17.5819 93.725 17.0886C94.6159 16.5718 95.3782 15.9135 96.0112 15.1149C96.6677 14.2928 97.1717 13.3894 97.5233 12.4029C97.8984 11.3928 98.0852 10.394 98.0852 9.40749C98.0852 8.63235 97.8871 7.822 97.4886 6.97638C97.1136 6.13077 96.6208 5.34429 96.0112 4.61612C95.4251 3.88796 94.7568 3.28868 94.0067 2.81889C93.2565 2.34911 92.518 2.11417 91.7912 2.11417H91.0171ZM35.6035 4.79137C35.7911 4.79137 36.0131 4.81524 36.2709 4.86222C36.5288 4.90919 36.7758 4.99211 37.0103 5.10955C37.2682 5.20351 37.4901 5.33167 37.6776 5.49609C37.8652 5.63703 37.983 5.81417 38.0299 6.02557C38.0533 6.23697 38.0054 6.48322 37.8885 6.76509C37.7713 7.04696 37.6083 7.31708 37.3973 7.57546C37.2097 7.81035 36.9865 8.02143 36.7286 8.20934C36.4942 8.37376 36.2597 8.45668 36.0253 8.45668C35.955 8.45668 35.861 8.40894 35.7437 8.31499C35.65 8.19754 35.6035 8.11587 35.6035 8.06889V4.79137ZM103.94 4.79137C104.128 4.79137 104.351 4.81524 104.609 4.86222C104.867 4.90919 105.112 4.99211 105.347 5.10955C105.605 5.20351 105.828 5.33167 106.016 5.49609C106.203 5.63703 106.32 5.81417 106.367 6.02557C106.39 6.23697 106.344 6.48322 106.226 6.76509C106.109 7.04696 105.945 7.31708 105.734 7.57546C105.546 7.81035 105.324 8.02143 105.066 8.20934C104.832 8.37376 104.598 8.45668 104.363 8.45668C104.293 8.45668 104.199 8.40894 104.082 8.31499C103.988 8.19754 103.94 8.11587 103.94 8.06889V4.79137ZM49.545 5.35565H50.0027H52.0074C52.6169 5.35565 53.1435 5.426 53.5889 5.56694C54.0343 5.70787 54.3866 5.96668 54.6445 6.34251C54.9024 6.71834 55.0315 7.29375 55.0315 8.06889C55.0315 9.94803 54.5036 11.2747 53.4487 12.0499C52.4172 12.825 50.9163 13.2132 48.9471 13.2132L48.7362 5.81303C48.7362 5.62512 48.7839 5.50827 48.8776 5.46129C48.9949 5.39083 49.2168 5.35565 49.545 5.35565ZM90.7368 6.16602C90.7836 6.16602 90.8765 6.17733 91.0171 6.20082H91.3346C91.4519 6.24779 91.6036 6.33071 91.7912 6.44815C92.0022 6.5656 92.2015 6.695 92.3891 6.83594C92.5766 6.97687 92.7522 7.1289 92.9163 7.29332C93.0803 7.43426 93.1857 7.55235 93.2326 7.64631C93.2326 7.6698 93.2676 7.77533 93.338 7.96324C93.4084 8.15116 93.4798 8.36223 93.5502 8.59712C93.6439 8.83202 93.7254 9.05564 93.7957 9.26704C93.8661 9.47845 93.9012 9.61916 93.9012 9.68963C93.9012 10.7701 93.5726 11.6973 92.9163 12.4725C92.2598 13.2476 91.4988 13.8469 90.6314 14.2697C89.9046 14.1288 89.2827 13.8938 88.767 13.565C88.2512 13.2361 87.8299 12.8605 87.5017 12.4377C87.1969 11.9914 86.985 11.5215 86.8678 11.0282C86.7506 10.535 86.728 10.0538 86.7984 9.58398C86.7984 9.18467 86.9275 8.78515 87.1854 8.38583C87.4432 7.96302 87.7705 7.58737 88.1691 7.25852C88.5676 6.92967 88.9901 6.67087 89.4356 6.48295C89.9044 6.27155 90.3382 6.16601 90.7368 6.16601V6.16602ZM22.0218 7.57546C22.35 7.69291 22.5494 7.92785 22.6197 8.28018C22.7135 8.63252 22.795 8.99686 22.8653 9.37269L23.885 12.5085C23.9084 12.6964 23.7566 12.8372 23.4285 12.9311C23.1238 13.0016 22.7488 13.0606 22.3034 13.1076C21.8814 13.1546 21.4589 13.1772 21.0369 13.1772H20.1226H19.49H19.067C18.856 13.1537 18.7281 13.1424 18.6813 13.1424C18.7046 13.0954 18.7622 12.9773 18.8562 12.7894C18.95 12.6015 19.0202 12.4847 19.067 12.4377C19.114 12.3437 19.2782 12.0623 19.5595 11.5925C19.8643 11.0992 20.1928 10.5703 20.5444 10.0066C20.8961 9.44283 21.2133 8.92646 21.4946 8.45667C21.7994 7.9634 21.975 7.66942 22.0218 7.57546V7.57546ZM90.4192 8.35103C89.7394 8.35103 89.283 8.62115 89.0485 9.1614C88.8142 9.70165 88.6962 10.3236 88.6962 11.0282L88.7308 11.2047C88.7778 11.3222 88.8831 11.439 89.0471 11.5565C89.2347 11.6504 89.5043 11.7208 89.8559 11.7678C90.231 11.7912 90.7464 11.7448 91.4027 11.6273C91.4965 11.6038 91.5906 11.5096 91.6844 11.3452C91.8016 11.1807 91.8956 11.0049 91.9659 10.8169C92.0597 10.6055 92.13 10.4058 92.1768 10.2179C92.2471 10.0299 92.2823 9.88923 92.2823 9.79528C92.2823 9.25502 92.0716 8.87937 91.6496 8.66797C91.2277 8.45657 90.8164 8.35103 90.4178 8.35103H90.4192Z" fill="black"/>
</svg>
