<svg width="20" height="19" viewBox="0 0 20 19" xmlns="http://www.w3.org/2000/svg">
<path d="M19 6H12.388L13.949 1.316C13.9995 1.16575 14.0134 1.00562 13.9896 0.848911C13.9658 0.692203 13.9049 0.543444 13.812 0.415C13.7191 0.286584 13.597 0.182021 13.4559 0.109884C13.3147 0.0377468 13.1585 8.96128e-05 13 0H10C9.703 0 9.422 0.132 9.231 0.36L4.531 6H1C0.734784 6 0.48043 6.10536 0.292893 6.29289C0.105357 6.48043 0 6.73478 0 7V18C0 18.2652 0.105357 18.5196 0.292893 18.7071C0.48043 18.8946 0.734784 19 1 19H16C16.417 19 16.79 18.741 16.937 18.351L19.937 10.351C19.9789 10.2387 20.0002 10.1198 20 10V7C20 6.73478 19.8946 6.48043 19.7071 6.29289C19.5196 6.10536 19.2652 6 19 6ZM2 8H4V17H2V8ZM18 9.819L15.307 17H6V7.362L10.469 2H11.613L10.052 6.684C10.002 6.83425 9.98831 6.99424 10.0122 7.1508C10.0361 7.30736 10.0968 7.456 10.1894 7.5845C10.2819 7.713 10.4037 7.81767 10.5446 7.88991C10.6856 7.96215 10.8416 7.99988 11 8H18V9.819Z"/>
</svg>
