<?xml version="1.0" encoding="UTF-8" standalone="no"?>
<svg
   xmlns:dc="http://purl.org/dc/elements/1.1/"
   xmlns:cc="http://creativecommons.org/ns#"
   xmlns:rdf="http://www.w3.org/1999/02/22-rdf-syntax-ns#"
   xmlns:svg="http://www.w3.org/2000/svg"
   xmlns="http://www.w3.org/2000/svg"
   xmlns:sodipodi="http://sodipodi.sourceforge.net/DTD/sodipodi-0.dtd"
   xmlns:inkscape="http://www.inkscape.org/namespaces/inkscape"
   viewBox="0 0 100.654 100.654"
   version="1.1"
   id="svg16"
   sodipodi:docname="games (copia).svg"
   inkscape:version="0.92.3 (2405546, 2018-03-11)">
  <metadata
     id="metadata22">
    <rdf:RDF>
      <cc:Work
         rdf:about="">
        <dc:format>image/svg+xml</dc:format>
        <dc:type
           rdf:resource="http://purl.org/dc/dcmitype/StillImage" />
      </cc:Work>
    </rdf:RDF>
  </metadata>
  <defs
     id="defs20" />
  <sodipodi:namedview
     pagecolor="#ffffff"
     bordercolor="#666666"
     borderopacity="1"
     objecttolerance="10"
     gridtolerance="10"
     guidetolerance="10"
     inkscape:pageopacity="0"
     inkscape:pageshadow="2"
     inkscape:window-width="2560"
     inkscape:window-height="1379"
     id="namedview18"
     showgrid="false"
     inkscape:zoom="6.6317166"
     inkscape:cx="63.763458"
     inkscape:cy="53.520103"
     inkscape:window-x="0"
     inkscape:window-y="27"
     inkscape:window-maximized="1"
     inkscape:current-layer="g854" />
  <g
     id="g854">
    <rect
       transform="rotate(90)"
       ry="0.79400003"
       rx="0.79400003"
       y="-89.405998"
       x="11.246008"
       height="78.158997"
       width="78.161003"
       id="rect2"
       style="fill:#ffffff;paint-order:stroke fill markers" />
    <path
       d="m 50.326,0.302 a 0.792,0.792 0 0 0 -0.56,0.233 l -49.23,49.23 a 0.792,0.792 0 0 0 0,1.122 l 49.23,49.232 c 0.312,0.31 0.812,0.31 1.123,0 l 49.23,-49.23 a 0.792,0.792 0 0 0 0,-1.123 L 50.888,0.535 A 0.792,0.792 0 0 0 50.326,0.301 Z M 10.864,6.648 A 4.377,4.377 0 0 0 6.487,11.024 4.377,4.377 0 0 0 10.864,15.4 4.377,4.377 0 0 0 15.24,11.024 4.377,4.377 0 0 0 10.864,6.648 Z m 78.845,0 a 4.377,4.377 0 0 0 -4.376,4.376 4.377,4.377 0 0 0 4.376,4.376 4.377,4.377 0 0 0 4.377,-4.376 4.377,4.377 0 0 0 -4.377,-4.376 z M 10.864,85.493 a 4.377,4.377 0 0 0 -4.377,4.377 4.377,4.377 0 0 0 4.377,4.376 4.377,4.377 0 0 0 4.376,-4.376 4.377,4.377 0 0 0 -4.376,-4.377 z m 78.845,0 a 4.377,4.377 0 0 0 -4.376,4.377 4.377,4.377 0 0 0 4.376,4.376 4.377,4.377 0 0 0 4.377,-4.376 4.377,4.377 0 0 0 -4.377,-4.377 z"
       id="path4"
       inkscape:connector-curvature="0"
       style="fill:#ffffff;paint-order:stroke fill markers" />
    <rect
       ry="0.79400003"
       rx="0.79400003"
       y="11.489996"
       x="11.489006"
       height="77.674004"
       width="77.676003"
       id="rect6"
       style="fill:#ffffff;paint-order:stroke fill markers" />
    <path
       style="color:#000000;font-weight:400;line-height:normal;font-family:sans-serif;font-variant-ligatures:normal;font-variant-position:normal;font-variant-caps:normal;font-variant-numeric:normal;font-variant-alternates:normal;font-feature-settings:normal;text-indent:0;text-align:start;text-decoration:none;text-decoration-line:none;text-decoration-style:solid;text-decoration-color:#000000;text-transform:none;text-orientation:mixed;white-space:normal;shape-padding:0;overflow:visible;isolation:auto;mix-blend-mode:normal"
       d="M 50.328,0 49.954,0.375 39.082,11.246 h 1.495 l 9.75,-9.75 9.75,9.75 h 1.497 z m -0.001,3.341 -0.374,0.374 -7.531,7.531 h 1.497 l 6.408,-6.408 6.408,6.408 h 1.497 z M 11.001,5.939 a 5.014,5.014 0 0 0 -5.006,5.006 5.014,5.014 0 0 0 5.006,5.006 c 0.083,0 0.164,-0.009 0.247,-0.013 V 14.88 c -0.082,0.005 -0.164,0.012 -0.247,0.012 a 3.94,3.94 0 0 1 -3.947,-3.947 3.94,3.94 0 0 1 3.947,-3.948 3.94,3.94 0 0 1 3.947,3.948 c 0,0.102 -0.007,0.201 -0.015,0.301 h 1.058 c 0.006,-0.1 0.016,-0.2 0.016,-0.301 A 5.014,5.014 0 0 0 11.001,5.939 Z m 78.846,0 a 5.014,5.014 0 0 0 -5.006,5.006 c 0,0.102 0.01,0.201 0.016,0.301 h 1.057 c -0.007,-0.1 -0.015,-0.2 -0.015,-0.301 a 3.94,3.94 0 0 1 3.948,-3.948 3.94,3.94 0 0 1 3.947,3.948 3.939,3.939 0 0 1 -4.387,3.921 v 1.063 c 0.145,0.012 0.291,0.022 0.44,0.022 a 5.013,5.013 0 0 0 5.005,-5.006 5.013,5.013 0 0 0 -5.005,-5.006 z m -39.436,5.479 c -21.57,0 -39.076,17.508 -39.076,39.077 0,21.57 17.507,39.077 39.076,39.077 21.57,0 39.078,-17.507 39.078,-39.077 0,-21.569 -17.509,-39.077 -39.078,-39.077 z m -37.088,1.906 v 16.404 l 1.018,0.201 C 19.546,17.289 30.245,14.363 30.245,14.363 l -0.14,-1.04 H 13.323 Z m 57.291,0 -0.14,1.039 c 0,0 10.699,2.926 15.904,15.566 l 1.017,-0.2 V 13.324 h -16.78 z m -20.203,0.211 c 20.425,0 36.961,16.535 36.961,36.96 0,20.426 -16.536,36.962 -36.96,36.962 -20.426,0 -36.962,-16.536 -36.962,-36.962 0,-20.425 16.536,-36.96 36.961,-36.96 z m -36.03,0.847 h 13.128 c -3.3,1.536 -9.185,5.256 -13.127,13.137 V 14.382 Z m 58.83,0 H 86.337 V 27.519 C 82.395,19.639 76.509,15.918 73.21,14.382 Z m 16.196,24.697 v 1.497 l 9.75,9.75 -9.75,9.751 v 1.497 L 100.655,50.327 Z M 11.247,39.081 0.001,50.328 11.248,61.575 v -1.498 l -9.751,-9.75 9.75,-9.751 z m 0,3.34 -7.905,7.906 7.906,7.905 v -1.493 l -6.41,-6.41 6.41,-6.411 v -1.497 z m 78.16,0 v 1.497 l 6.41,6.41 -6.41,6.41 v 1.497 l 7.907,-7.907 z M 14.341,70.474 13.323,70.675 V 87.08 h 16.781 l 0.14,-1.04 c 0,0 -10.698,-2.926 -15.903,-15.566 z m 72.037,0 C 81.173,83.114 70.473,86.041 70.473,86.041 l 0.141,1.039 H 87.395 V 70.675 l -1.017,-0.2 z m -71.996,2.41 c 3.942,7.88 9.828,11.602 13.127,13.137 H 14.382 Z m 71.955,0 V 86.021 H 73.21 c 3.3,-1.535 9.185,-5.256 13.127,-13.137 z m -75.336,11.9 a 5.014,5.014 0 0 0 -5.006,5.007 5.014,5.014 0 0 0 5.006,5.006 5.014,5.014 0 0 0 5.006,-5.006 c 0,-0.13 -0.01,-0.257 -0.02,-0.384 h -1.058 a 3.939,3.939 0 0 1 -3.928,4.331 3.94,3.94 0 0 1 -3.947,-3.947 3.94,3.94 0 0 1 3.947,-3.948 c 0.083,0 0.165,0.008 0.247,0.013 v -1.059 c -0.083,-0.004 -0.164,-0.012 -0.247,-0.012 z m 78.846,0 c -0.149,0 -0.295,0.01 -0.44,0.023 v 1.062 a 3.94,3.94 0 0 1 4.387,3.922 3.939,3.939 0 0 1 -3.947,3.947 3.94,3.94 0 0 1 -3.929,-4.331 h -1.057 c -0.01,0.127 -0.02,0.254 -0.02,0.384 a 5.014,5.014 0 0 0 5.006,5.006 5.013,5.013 0 0 0 5.005,-5.006 5.013,5.013 0 0 0 -5.005,-5.006 z m -50.768,4.623 11.248,11.247 11.247,-11.247 h -1.496 l -9.75,9.75 -9.75,-9.75 z m 3.343,0 7.906,7.906 7.907,-7.906 h -1.497 l -6.411,6.41 -6.411,-6.41 z"
       font-weight="400"
       overflow="visible"
       id="path8"
       inkscape:connector-curvature="0" />
    <path
       style="color:#000000;font-weight:400;line-height:normal;font-family:sans-serif;font-variant-ligatures:normal;font-variant-position:normal;font-variant-caps:normal;font-variant-numeric:normal;font-variant-alternates:normal;font-feature-settings:normal;text-indent:0;text-align:start;text-decoration:none;text-decoration-line:none;text-decoration-style:solid;text-decoration-color:#000000;text-transform:none;text-orientation:mixed;white-space:normal;shape-padding:0;overflow:visible;isolation:auto;mix-blend-mode:normal"
       d="m 10.167,10.168 v 80.32 h 80.32 v -80.32 z m 1.322,1.322 H 89.165 V 89.164 H 11.489 Z"
       font-weight="400"
       overflow="visible"
       id="path10"
       inkscape:connector-curvature="0" />
    <path
       id="path829"
       d="m 28.921548,24.402591 c -0.09885,0.01284 -0.354572,0.249534 -0.832369,0.76643 -0.17893,0.193655 -0.369636,0.392406 -0.42364,0.441853 -0.210877,0.193094 -0.977829,1.273574 -1.236114,1.741229 -0.149798,0.271146 -0.32383,0.577024 -0.386614,0.6799 -0.06285,0.102788 -0.114087,0.25172 -0.114087,0.330582 0,0.07888 -0.03177,0.160239 -0.07025,0.180839 -0.063,0.03381 -0.203679,0.513768 -0.517492,1.766652 -0.137106,0.547658 -0.140411,2.928827 -0.0059,3.591575 0.05517,0.271154 0.139267,0.683065 0.186613,0.915529 0.158738,0.779385 0.232958,1.093195 0.312171,1.322017 0.04335,0.124974 0.139454,0.41782 0.21373,0.650203 0.07427,0.232383 0.172721,0.517458 0.21868,0.633609 0.04571,0.116232 0.113771,0.306202 0.150753,0.422434 0.08196,0.257394 0.234447,0.628753 0.38049,0.926375 0.05989,0.12206 0.109999,0.264516 0.111424,0.316805 0,0.05229 0.05642,0.15654 0.122513,0.231735 0.0658,0.0752 0.119834,0.194664 0.119834,0.265245 0,0.07058 0.03488,0.183171 0.07748,0.250433 0.04269,0.06726 0.131854,0.233111 0.198064,0.368688 0.132533,0.271316 0.42767,0.871011 0.537346,1.091739 0.670834,1.349941 1.80208,3.285171 1.903257,3.256032 0.0534,-0.0153 0.269948,-0.247276 0.481254,-0.515274 0.211386,-0.267997 0.423235,-0.525957 0.470925,-0.573551 0.04749,-0.04767 0.20309,-0.237968 0.345394,-0.422838 1.001423,-1.300243 3.806288,-3.979487 5.245265,-5.010681 0.290823,-0.208424 0.528952,-0.419357 0.528952,-0.468327 0,-0.04913 -0.266378,-0.288394 -0.59152,-0.532271 -1.337234,-1.002703 -2.888477,-2.434395 -3.770609,-3.479997 -0.130745,-0.154841 -0.28527,-0.307011 -0.343864,-0.338012 -0.05871,-0.03076 -0.106494,-0.09543 -0.106494,-0.143347 0,-0.04816 -0.108842,-0.19693 -0.241578,-0.33097 -0.132793,-0.1342 -0.242792,-0.267244 -0.244629,-0.295638 0,-0.02816 -0.140887,-0.250328 -0.309132,-0.493047 -0.803716,-1.159834 -1.559807,-2.757101 -1.808977,-3.821529 -0.03618,-0.154939 -0.106681,-0.424385 -0.156095,-0.598668 -0.151062,-0.532554 -0.281766,-1.474324 -0.317898,-2.289032 -0.01898,-0.426066 -0.06144,-0.79871 -0.09465,-0.828584 -0.0076,-0.0071 -0.01875,-0.0096 -0.03241,-0.0081 z m 42.771999,0.006 c -0.01967,0 -0.03254,0.0078 -0.03966,0.02506 -0.02193,0.0556 -0.05472,0.433893 -0.07212,0.840609 -0.03383,0.782971 -0.165768,1.727979 -0.314862,2.253718 -0.04921,0.174299 -0.119874,0.443713 -0.156136,0.598651 -0.108785,0.464798 -0.385119,1.223737 -0.619364,1.70096 -0.0599,0.122076 -0.108785,0.24085 -0.108785,0.264193 0,0.09523 -0.770158,1.428155 -1.067456,1.847545 -0.175643,0.247787 -0.32069,0.473532 -0.322471,0.501894 0,0.02816 -0.111861,0.161511 -0.244605,0.295631 -0.132744,0.134039 -0.24161,0.282971 -0.24161,0.330888 0,0.04816 -0.04848,0.112833 -0.107653,0.143752 -0.05933,0.03076 -0.269292,0.246224 -0.466303,0.478607 -0.804316,0.948634 -2.362034,2.374823 -3.646979,3.338754 -0.325223,0.243958 -0.591521,0.483949 -0.591521,0.532919 0,0.04921 0.238049,0.259579 0.528953,0.468004 1.419551,1.017272 4.401839,3.862688 5.201703,4.963006 0.115179,0.158483 0.258688,0.332993 0.318666,0.38779 0.06006,0.05496 0.25359,0.289609 0.430528,0.521749 0.349667,0.458776 0.538179,0.668576 0.599938,0.668576 0.02193,0 0.08823,-0.05552 0.148123,-0.123273 0.113399,-0.128535 0.587958,-0.94653 0.970083,-1.672736 0.122302,-0.232383 0.323766,-0.612404 0.448011,-0.844867 0.569018,-1.064138 0.652631,-1.226587 0.652631,-1.26722 0,-0.0242 0.07544,-0.192155 0.167549,-0.37403 0.402036,-0.792984 0.890437,-1.923331 1.055962,-2.44338 0.03683,-0.116232 0.104738,-0.306525 0.150794,-0.422757 0.04565,-0.116151 0.144399,-0.401308 0.218623,-0.63361 0.0743,-0.232464 0.170462,-0.525229 0.213766,-0.650284 0.08046,-0.232383 0.160831,-0.574117 0.310653,-1.321612 0.04687,-0.232464 0.122708,-0.605037 0.169492,-0.827869 0.136872,-0.65255 0.187865,-2.421129 0.08847,-3.080899 C 75.22988,29.990795 75.118342,29.419032 75.032544,29.184764 74.704165,28.28743 74.568993,27.979165 74.257773,27.422336 74.062866,27.073729 73.808467,26.66797 73.69264,26.520988 73.576731,26.374023 73.481949,26.23618 73.481949,26.214423 c 0,-0.06232 -1.003108,-1.149944 -1.4151,-1.53427 -0.19523,-0.181973 -0.314214,-0.2691 -0.373302,-0.271595 z M 50.605627,35.57892 c -0.595567,-0.01141 -1.495555,0.0752 -1.736113,0.17799 -1.064947,0.455053 -0.999546,0.356224 -0.999546,1.50883 v 0.983277 l 0.22445,-0.04727 c 0.123436,-0.02614 0.389329,-0.07754 0.591116,-0.114775 1.293363,-0.238777 2.31873,-0.208424 3.854189,0.114775 l 0.224451,0.04727 V 37.258374 36.267651 L 52.498928,36.09387 c -0.393942,-0.258689 -1.025123,-0.450359 -1.65938,-0.503618 -0.06977,-0.0056 -0.148852,-0.01012 -0.233921,-0.01174 z m 4.150354,2.755652 v 0.0022 c -0.02679,0 -0.04986,0.0053 -0.06759,0.0091 -0.117527,0.03893 -0.129749,0.808281 -0.129749,8.199369 0,7.709027 0.0078,8.158737 0.1427,8.18909 0.222427,0.05018 14.311016,0.05229 14.527939,0 0.177019,-0.04096 0.188755,-0.07099 0.144238,-0.368688 -0.0879,-0.588525 -0.197174,-1.117235 -0.280544,-1.356255 -0.04508,-0.129587 -0.143994,-0.425995 -0.219756,-0.658378 -0.07584,-0.232383 -0.189403,-0.526605 -0.252294,-0.653764 -0.06289,-0.127159 -0.114451,-0.27512 -0.114451,-0.328784 0,-0.05366 -0.05213,-0.187056 -0.115666,-0.296731 -0.0637,-0.109676 -0.179852,-0.342059 -0.257636,-0.516326 -0.149904,-0.33615 -0.566267,-1.150907 -0.691564,-1.353098 -0.04096,-0.06637 -0.252538,-0.41523 -0.469784,-0.774934 -0.48662,-0.806015 -1.214851,-1.831381 -1.765091,-2.484984 -0.228174,-0.271153 -0.475774,-0.575655 -0.550321,-0.676751 -0.07455,-0.101096 -0.183899,-0.227931 -0.243067,-0.281838 -0.05933,-0.05391 -0.389005,-0.399203 -0.732763,-0.767163 -0.774286,-0.828517 -2.865894,-2.610848 -3.901864,-3.324913 -1.136823,-0.783595 -2.451555,-1.518219 -3.554625,-1.98598 -0.53478,-0.226798 -1.069884,-0.4557 -1.189192,-0.508636 -0.08952,-0.03999 -0.199439,-0.06321 -0.279005,-0.06249 z m -8.87774,0.0022 c -0.07957,0 -0.189565,0.02258 -0.279005,0.06249 -0.119389,0.05302 -0.654574,0.282729 -1.189597,0.510741 -1.104122,0.470432 -2.41845,1.204085 -3.55422,1.983875 -0.98012,0.672866 -3.247614,2.60591 -3.921371,3.342963 -0.282324,0.308792 -0.555096,0.597672 -0.606008,0.641704 -0.05099,0.04403 -0.233436,0.254156 -0.405679,0.467275 -0.172244,0.213038 -0.33526,0.403412 -0.362213,0.422757 -0.06912,0.0497 -0.736486,0.928156 -1.150259,1.513848 -0.725478,1.027066 -1.202191,1.836481 -1.907798,3.239763 -0.05812,0.116232 -0.16661,0.331374 -0.240437,0.477878 -0.07378,0.146585 -0.133942,0.311868 -0.133942,0.367313 0,0.05553 -0.05178,0.204782 -0.114516,0.332022 -0.06284,0.127159 -0.176428,0.421381 -0.252262,0.653764 -0.07583,0.232383 -0.174615,0.528709 -0.219813,0.658297 -0.08365,0.239991 -0.19294,0.769915 -0.280891,1.359816 -0.0421,0.281272 -0.02754,0.332669 0.103427,0.361727 0.225042,0.04962 14.313283,0.0552 14.528263,0.0053 l 0.183575,-0.04241 v -8.153799 c 0,-7.388336 -0.01246,-8.15728 -0.129749,-8.196213 -0.01781,-0.0062 -0.04096,-0.0088 -0.06759,-0.0092 z m -7.319131,0.318586 c -0.47367,0 -4.177227,3.2498 -5.375411,4.716863 -0.109878,0.134444 -0.242121,0.284591 -0.294255,0.333398 -0.05221,0.04865 -0.264638,0.303045 -0.472075,0.565134 -0.207477,0.262088 -0.575348,0.714227 -0.817492,1.004807 -0.24208,0.290418 -0.442685,0.563757 -0.445729,0.607465 -0.0059,0.04355 -0.06011,0.118823 -0.127474,0.167064 -0.194341,0.1393 -0.144708,0.393375 0.176314,0.90104 0.164271,0.259741 0.350388,0.559548 0.413676,0.666067 0.121679,0.204782 0.16661,0.224046 0.322495,0.138491 0.0534,-0.02922 0.136435,-0.131773 0.184725,-0.22785 0.04807,-0.096 0.160029,-0.269859 0.248433,-0.38601 0.08838,-0.116232 0.194446,-0.274634 0.235499,-0.352176 0.04091,-0.07746 0.169953,-0.261198 0.28659,-0.408269 0.116636,-0.14699 0.212196,-0.279329 0.212196,-0.294546 0,-0.115989 1.684845,-2.095331 2.514252,-2.953716 0.713904,-0.738914 2.755733,-2.535167 3.407312,-2.997181 0.244686,-0.173538 0.552749,-0.400417 0.684602,-0.504427 l 0.239749,-0.189241 -0.628996,-0.393133 C 38.977658,38.832686 38.6339,38.655343 38.55911,38.655343 Z m 23.515921,0 c -0.07479,0 -0.419034,0.177181 -0.765139,0.39378 l -0.629725,0.394185 0.284671,0.231331 c 0.156379,0.127321 0.411345,0.306525 0.566752,0.398394 0.405436,0.239505 2.757595,2.305536 3.483964,3.060072 0.835234,0.86745 2.512018,2.839184 2.512018,2.953716 0,0.01538 0.09551,0.147556 0.212147,0.294546 0.116718,0.147071 0.245577,0.330808 0.286614,0.408269 0.04096,0.07754 0.147071,0.235944 0.235459,0.352176 0.08839,0.116151 0.200168,0.290013 0.24849,0.38601 0.08402,0.167063 0.218461,0.279572 0.336635,0.281838 0.03027,0 0.107167,-0.08588 0.170544,-0.192479 0.0633,-0.106438 0.249462,-0.406326 0.413692,-0.666067 0.321095,-0.507665 0.370712,-0.76174 0.176371,-0.90104 -0.06734,-0.04816 -0.12214,-0.114452 -0.12214,-0.147233 0,-0.09195 -1.080893,-1.418661 -2.155552,-2.645814 -0.946368,-1.08065 -1.645864,-1.764362 -2.960758,-2.893657 -1.423355,-1.22254 -2.075339,-1.708027 -2.294043,-1.708027 z m -11.813243,0.866316 c -0.840901,0.0051 -1.669904,0.151766 -2.115891,0.442588 -0.346349,0.225827 -0.173943,0.389814 0.702976,0.669305 0.543846,0.173296 2.341718,0.175562 2.895519,0.0053 0.918281,-0.285318 1.09959,-0.462823 0.705324,-0.691563 -0.494228,-0.286614 -1.34719,-0.427533 -2.187928,-0.42381 z m -2.301733,2.584299 c -0.06378,0 -0.09009,0.617584 -0.09009,2.112815 v 2.112815 h 0.2752 c 0.151361,0 0.431337,-0.04759 0.622036,-0.105629 0.248166,-0.07552 0.689135,-0.105547 1.549867,-0.105547 0.860893,0 1.3017,0.03019 1.549867,0.105547 0.190698,0.0582 0.470269,0.105629 0.62163,0.105629 h 0.275606 v -2.112815 c 0,-1.643597 -0.0225,-2.112815 -0.101906,-2.112815 -0.05633,0 -0.359218,0.05188 -0.67319,0.11518 -0.943696,0.190131 -2.091284,0.20203 -3.082169,0.03181 -0.47108,-0.08086 -0.897317,-0.147313 -0.946854,-0.147313 z m 2.315007,5.517941 c -0.184304,-0.005 -0.346834,0.0079 -0.471322,0.03497 -0.205996,0.04452 -0.470837,0.08126 -0.588445,0.08126 -0.259336,0 -1.02318,0.292765 -1.174298,0.449954 -0.08693,0.09033 -0.08895,0.134686 -0.0091,0.217894 0.149904,0.155974 0.717465,0.365208 1.224645,0.451411 0.246709,0.04193 0.522072,0.09098 0.611755,0.108785 0.273501,0.05407 1.197124,-0.01554 1.672008,-0.125783 0.516244,-0.119955 0.91739,-0.284105 1.063247,-0.435789 0.08216,-0.08547 0.07471,-0.130963 -0.0382,-0.238453 -0.281838,-0.268888 -1.490132,-0.532271 -2.289833,-0.544251 z m -2.255434,2.608339 c -0.03165,0 -0.0548,-1.62e-4 -0.06637,0.007 -0.05342,0.02873 -0.08321,0.761578 -0.08321,2.055589 v 2.010343 l 0.265246,-0.04023 c 0.145775,-0.02202 0.595324,-0.09073 0.999141,-0.152251 0.773396,-0.117932 2.003463,-0.0977 2.732503,0.04484 0.201868,0.03942 0.486215,0.08903 0.63199,0.109837 l 0.265246,0.0378 v -2.010667 c 0,-1.294011 -0.02971,-2.026612 -0.08353,-2.055265 -0.04573,-0.02445 -0.275444,0.0136 -0.509931,0.0841 -0.61467,0.185032 -3.080956,0.183737 -3.707604,0 -0.175886,-0.05213 -0.348615,-0.08612 -0.443479,-0.08936 z m 2.269599,5.330723 c -0.422596,-0.0051 -0.828679,0.03092 -1.125087,0.107329 -0.999788,0.257312 -1.385151,0.515597 -1.074335,0.720217 0.264678,0.174186 0.87012,0.372168 1.328896,0.43506 0.685817,0.09405 1.973677,0.01724 2.471467,-0.147961 1.116992,-0.370145 1.003836,-0.665339 -0.377026,-0.982548 -0.362455,-0.08329 -0.801482,-0.127645 -1.223915,-0.132097 z m -17.904696,0.754051 c -0.106146,0.0019 -0.220727,0.0059 -0.338497,0.01117 l -0.856417,0.03707 -0.02251,1.265196 c -0.01248,0.695934 -0.0059,1.306152 0.01794,1.35585 0.05103,0.114209 1.801797,0.12983 1.882633,0.017 0.02903,-0.04047 -1.46e-4,-0.143428 -0.06448,-0.228822 -0.333236,-0.442507 -0.371942,-1.27418 -0.09349,-2.006538 0.08297,-0.218219 0.110841,-0.394104 0.06721,-0.424538 -0.02061,-0.01408 -0.135811,-0.02291 -0.304558,-0.02542 -0.08435,-0.0025 -0.181981,-0.0023 -0.288143,0 z m 35.666975,0 c -0.349586,0 -0.410293,0.02825 -0.428504,0.110161 -0.01489,0.0675 0.008,0.160831 0.05067,0.207291 0.04274,0.04662 0.125297,0.297703 0.18398,0.558092 0.119308,0.529033 0.01813,1.262282 -0.217895,1.573097 -0.211176,0.278357 -0.08936,0.318828 0.893756,0.297379 l 0.910996,-0.01975 0.0225,-1.297653 c 0.01246,-0.713742 -0.0059,-1.321532 -0.0408,-1.35059 -0.03505,-0.02922 -0.448496,-0.06127 -0.919414,-0.07171 -0.189969,-0.005 -0.338335,-0.0069 -0.454891,-0.0063 z m -9.206282,0.01975 c -0.388923,-0.005 -0.925808,0.0053 -1.656709,0.0092 l -2.589399,0.01837 -0.02291,1.297653 c -0.017,0.990966 8.1e-5,1.311009 0.08167,1.354474 0.117608,0.06451 4.876885,0.08135 5.06823,0.01805 0.130073,-0.04298 0.125217,-0.06079 -0.163421,-0.638547 -0.169086,-0.338335 -0.142133,-1.147021 0.05043,-1.513443 0.235863,-0.448983 0.398556,-0.538261 -0.768296,-0.546031 z m -17.053636,0 c -1.166205,0.0078 -1.011606,0.09421 -0.773153,0.520291 0.190536,0.340683 0.219999,1.203357 0.05229,1.538859 -0.278762,0.55793 -0.291227,0.599048 -0.19086,0.634257 0.16852,0.05917 4.986318,0.0463 5.09567,-0.01368 0.07932,-0.04355 0.09867,-0.363832 0.08167,-1.354879 l -0.0225,-1.297653 -2.589803,-0.01837 c -0.72823,-0.005 -1.263982,-0.01133 -1.652905,-0.0088 z m -4.846856,0.02865 c -1.037264,0 -1.40401,0.09624 -1.933367,0.514221 -0.566752,0.447606 -0.654331,0.885742 -0.26905,1.344923 0.62673,0.74709 2.03843,1.04892 3.251581,0.695125 0.674728,-0.196768 1.256535,-0.65943 1.345651,-1.069803 0.09859,-0.454001 -0.201463,-0.859113 -0.889951,-1.202628 l -0.561815,-0.280462 z m 26.74929,0.01174 c -1.065513,0 -1.492074,0.117689 -1.992212,0.549512 -0.59071,0.510093 -0.560519,1.087286 0.0824,1.576011 0.680313,0.516973 1.964449,0.719084 2.85092,0.449225 0.613617,-0.186894 0.982224,-0.399932 1.257101,-0.727583 0.385039,-0.459019 0.292604,-0.920871 -0.270182,-1.35237 -0.517945,-0.397017 -0.899098,-0.494795 -1.928027,-0.494795 z m -15.824054,1.77019 v 0.716979 0.71698 l 0.550725,0.715199 c 0.302802,0.393456 0.565052,0.747089 0.582779,0.78586 0.01781,0.03893 0.136791,0.185923 0.26484,0.327085 0.128049,0.141081 0.233192,0.272853 0.233192,0.292441 0,0.03788 0.526848,0.726692 0.672462,0.879429 0.133796,0.140272 0.235459,0.07382 0.610622,-0.399446 0.191427,-0.24161 0.348049,-0.456591 0.348049,-0.477555 0,-0.02088 0.105143,-0.153788 0.233192,-0.294869 0.128049,-0.141162 0.247114,-0.288395 0.26484,-0.327085 0.01781,-0.03893 0.279977,-0.392404 0.582779,-0.78586 L 52.764174,59.5813 v -0.715199 -0.714875 l -0.387386,0.04978 c -0.213119,0.02728 -0.529924,0.09219 -0.703705,0.144804 -0.421867,0.127645 -2.081491,0.126107 -2.664269,-0.0049 -0.244929,-0.05399 -0.601638,-0.120117 -0.792255,-0.146909 z m 10.411175,1.832353 c -1.246498,0.01627 -2.50101,0.492124 -3.437421,1.50462 -1.953361,2.111925 -1.218169,5.420002 1.478881,6.655493 1.251517,0.573308 3.031581,0.528871 4.29532,-0.107733 1.8003,-0.906788 2.762451,-2.834489 2.322696,-4.65292 -0.526119,-2.175706 -2.58187,-3.426495 -4.659476,-3.39946 z m -15.878123,0.0074 c -3.193384,0 -5.446875,2.884349 -4.399573,5.63134 0.432875,1.135447 1.003917,1.772052 2.122285,2.365676 0.821879,0.436194 1.235004,0.535023 2.235684,0.536804 0.675132,0.0018 1.510448,-0.108138 1.85623,-0.242258 2.416345,-0.93714 3.525405,-3.612012 2.413513,-5.821633 -0.798083,-1.58621 -2.311122,-2.469929 -4.228139,-2.469929 z m -9.578078,0.492043 c -0.05213,0.97575 -0.07445,1.240105 -0.07976,3.251095 l -0.01327,5.063374 0.562519,1.127352 c 0.649644,1.301701 2.03949,2.606558 3.346613,3.141662 0.477231,0.195393 1.448528,0.405193 2.158223,0.466547 2.564792,0.221698 3.213781,1.07903 3.213781,4.248212 0,1.678483 0.06321,2.170202 0.307173,2.396029 3.561019,-0.162369 14.848953,0.283133 16.173964,-0.04662 0.262736,-0.268726 0.324009,-0.734949 0.324009,-2.486441 0,-1.83211 0.05893,-2.244183 0.388924,-2.745048 0.557605,-0.846405 1.388388,-1.241804 2.879816,-1.370663 2.50271,-0.216357 4.658747,-1.728829 5.527735,-3.878067 0.397908,-0.98441 0.412073,-1.265925 0.337687,-6.546788 -0.02363,-1.67654 -0.04476,-1.743479 -0.07592,-2.620642 h -1.887231 c 0.04759,0.884852 0.05917,1.042284 0.05917,3.105239 0,5.337684 -0.03837,5.577109 -1.069723,6.709237 -0.745309,0.817994 -1.822154,1.285512 -3.379063,1.467145 -1.772375,0.206724 -2.53193,0.534132 -3.498856,1.508101 -0.992828,0.999951 -1.233062,1.740403 -1.235005,3.797854 l -0.0023,1.582325 h -0.879267 -0.879348 v -1.418418 c 0,-1.479044 -0.274149,-2.017385 -1.027309,-2.017385 -0.688407,0 -0.926618,0.514949 -0.926618,2.002168 v 1.433635 h -0.879348 -0.879267 v -1.418418 c 0,-1.479044 -0.274149,-2.017385 -1.02739,-2.017385 -0.688407,0 -0.926618,0.514949 -0.926618,2.002168 v 1.433635 h -0.879348 -0.879267 v -1.433635 c 0,-1.51652 -0.236996,-2.002168 -0.977044,-2.002168 -0.740048,0 -0.977045,0.485648 -0.977045,2.002168 v 1.433635 H 44.86847 44.011219 l -0.08159,-1.85356 c -0.09478,-2.152314 -0.448739,-2.973141 -1.713206,-3.974792 -0.869555,-0.688812 -1.904229,-1.042364 -3.059588,-1.045116 -1.658409,-0.0038 -3.634757,-1.333834 -4.206527,-2.830847 -0.291146,-0.762387 -0.34392,-5.42761 -0.164473,-8.465586 z m 17.546359,5.7224 c -0.292846,-0.0028 -0.581888,0.07357 -0.678613,0.186812 -0.110485,0.129426 -0.651336,1.491994 -1.202142,3.027939 -0.929856,2.592636 -0.980687,2.822429 -0.706376,3.209815 0.280785,0.396694 0.408835,0.417091 2.596682,0.417091 2.474057,0 2.780178,-0.09923 2.756543,-0.89497 -0.0076,-0.253589 -0.469137,-1.681882 -1.025852,-3.173795 -0.99388,-2.663702 -1.0231,-2.7134 -1.615106,-2.766903 -0.04144,-0.0038 -0.08337,-0.0056 -0.125136,-0.0059 z"
       inkscape:connector-curvature="0"
       style="fill:#000000;stroke-width:0.80941457" />
  </g>
</svg>
