<svg width="23" height="25" viewBox="0 0 23 25" fill="none" xmlns="http://www.w3.org/2000/svg">
<path d="M1.63925 0.000175224C1.59528 0.00592233 1.48153 0.111874 1.26901 0.343252C1.18943 0.429938 1.1046 0.518907 1.08058 0.541038C0.986782 0.627473 0.645646 1.11113 0.530764 1.32047C0.464136 1.44184 0.386725 1.57876 0.3588 1.62481C0.330846 1.67082 0.308055 1.73749 0.308055 1.77279C0.308055 1.8081 0.293922 1.84452 0.276808 1.85374C0.248788 1.86887 0.186212 2.08372 0.0466307 2.64455C-0.0143534 2.8897 -0.0158236 3.95557 0.0440042 4.25226C0.0685424 4.37364 0.105949 4.55802 0.127009 4.66205C0.197614 5.01093 0.230627 5.15142 0.265861 5.25382C0.285143 5.30979 0.327889 5.44087 0.360925 5.54488C0.393961 5.64891 0.437753 5.77651 0.458195 5.82851C0.478528 5.88054 0.508799 5.96556 0.52525 6.0176C0.561703 6.13282 0.629529 6.29907 0.694487 6.4323C0.721128 6.48693 0.743415 6.5507 0.744049 6.57411C0.744049 6.59749 0.769144 6.64417 0.798544 6.67782C0.827812 6.7115 0.851845 6.76496 0.851845 6.79656C0.851845 6.82815 0.867356 6.87856 0.88631 6.90865C0.905297 6.93877 0.944955 7.01301 0.974407 7.0737C1.03335 7.19513 1.16463 7.46359 1.21342 7.56239C1.5118 8.16667 2.01497 9.03292 2.05997 9.01991C2.08372 9.01303 2.18004 8.9092 2.27403 8.78924C2.36805 8.66927 2.46228 8.55379 2.4835 8.53249C2.50462 8.51117 2.57383 8.42596 2.63713 8.34324C3.08255 7.76118 4.33013 6.56188 4.97018 6.10028C5.09954 6.00699 5.20547 5.91258 5.20547 5.89065C5.20547 5.86865 5.087 5.76155 4.94235 5.65239C4.34756 5.20355 3.65759 4.56267 3.26521 4.09464C3.20706 4.02531 3.13833 3.95722 3.11227 3.94333C3.08615 3.92957 3.0649 3.9006 3.0649 3.87915C3.0649 3.85759 3.01649 3.79103 2.95744 3.73101C2.89838 3.67095 2.84945 3.61139 2.84864 3.59868C2.84864 3.58607 2.78597 3.48662 2.71114 3.37798C2.35365 2.8588 2.01734 2.14381 1.90651 1.66734C1.89042 1.59799 1.85906 1.47737 1.83708 1.39936C1.76989 1.16097 1.71175 0.739406 1.69568 0.374716C1.68724 0.183997 1.66835 0.0171902 1.65358 0.0038178C1.6502 0.000660797 1.64524 -0.000472453 1.63917 0.000175224H1.63925ZM20.664 0.00284607C20.6553 0.00284607 20.6495 0.00632681 20.6463 0.0140653C20.6366 0.0389563 20.622 0.208289 20.6143 0.390347C20.5992 0.740831 20.5406 1.16384 20.4742 1.39918C20.4523 1.4772 20.4209 1.5978 20.4048 1.66715C20.3564 1.87521 20.2335 2.21494 20.1293 2.42856C20.1026 2.4832 20.0809 2.53637 20.0809 2.54682C20.0809 2.58945 19.7383 3.18611 19.6061 3.37384C19.528 3.48475 19.4635 3.58581 19.4627 3.5985C19.4627 3.6111 19.4129 3.67079 19.3539 3.73082C19.2948 3.79084 19.2464 3.8575 19.2464 3.87896C19.2464 3.90052 19.2249 3.92944 19.1985 3.94331C19.1721 3.95706 19.0787 4.05351 18.9911 4.15753C18.6334 4.58218 17.9405 5.22059 17.369 5.65205C17.2243 5.76128 17.1058 5.86868 17.1058 5.89062C17.1058 5.91263 17.2117 6.00681 17.3411 6.10011C17.9725 6.55547 19.299 7.82918 19.6548 8.32172C19.706 8.39264 19.7699 8.47076 19.7966 8.49531C19.8233 8.51989 19.9093 8.62491 19.9881 8.72882C20.1436 8.9342 20.2274 9.0281 20.2549 9.0281C20.2647 9.0281 20.2941 9.00325 20.3208 8.97293C20.3712 8.91539 20.5823 8.54924 20.7523 8.22417C20.8067 8.12014 20.8963 7.95003 20.9516 7.84599C21.2046 7.36964 21.2418 7.29694 21.2418 7.27873C21.2418 7.26789 21.2754 7.19273 21.3164 7.11131C21.4952 6.75633 21.7124 6.25035 21.7861 6.01757C21.8024 5.96554 21.8326 5.88036 21.8531 5.82833C21.8734 5.77634 21.9173 5.64871 21.9504 5.5447C21.9834 5.44066 22.0262 5.30962 22.0454 5.25364C22.0812 5.14959 22.117 4.99665 22.1836 4.66203C22.2045 4.55799 22.2382 4.3912 22.259 4.29144C22.3199 3.99934 22.3426 3.20768 22.2984 2.91234C22.2369 2.50163 22.1873 2.24569 22.1492 2.14082C22.0031 1.73915 21.943 1.60116 21.8046 1.35191C21.7179 1.19586 21.6047 1.01423 21.5532 0.948435C21.5016 0.88265 21.4595 0.820944 21.4595 0.811206C21.4595 0.783312 21.0133 0.296457 20.83 0.12442C20.7432 0.0429633 20.6903 0.00396301 20.664 0.00284592L20.664 0.00284607ZM11.2842 5.00305C11.0193 4.99795 10.619 5.03672 10.512 5.08273C10.0383 5.28643 10.0674 5.24218 10.0674 5.75813V6.19828L10.1672 6.1771C10.2221 6.16538 10.3404 6.14241 10.4302 6.12571C11.0054 6.01883 11.4615 6.03243 12.1445 6.1771L12.2443 6.19828V5.75481V5.31134L12.1263 5.23355C11.9511 5.11777 11.6703 5.03196 11.3883 5.00811C11.3572 5.0056 11.322 5.00357 11.2842 5.00285V5.00305ZM13.1302 6.23654V6.23752C13.1184 6.23752 13.1081 6.23988 13.1002 6.24165C13.0479 6.25907 13.0425 6.60345 13.0425 9.91193C13.0425 13.3627 13.0459 13.564 13.106 13.5776C13.2049 13.6001 19.4714 13.601 19.5679 13.5776C19.6466 13.5593 19.6519 13.5458 19.6321 13.4126C19.593 13.1491 19.5444 12.9125 19.5073 12.8055C19.4872 12.7475 19.4432 12.6148 19.4095 12.5108C19.3758 12.4067 19.3253 12.275 19.2973 12.2181C19.2693 12.1612 19.2464 12.095 19.2464 12.0709C19.2464 12.0469 19.2232 11.9872 19.195 11.9381C19.1666 11.889 19.115 11.785 19.0804 11.707C19.0137 11.5565 18.8285 11.1918 18.7728 11.1013C18.7545 11.0716 18.6604 10.9154 18.5638 10.7544C18.3474 10.3936 18.0234 9.93462 17.7787 9.64205C17.6772 9.5207 17.5671 9.38437 17.5339 9.33913C17.5008 9.29386 17.4521 9.23709 17.4258 9.21297C17.3994 9.18885 17.2528 9.03428 17.0999 8.86958C16.7555 8.49868 15.8251 7.70087 15.3643 7.38123C14.8587 7.03048 14.2739 6.70161 13.7833 6.49224C13.5454 6.39073 13.3074 6.28827 13.2543 6.26457C13.2145 6.24668 13.1656 6.23626 13.1302 6.23659L13.1302 6.23654ZM9.18148 6.23752C9.14608 6.23752 9.09718 6.24765 9.05739 6.26551C9.00429 6.28922 8.76623 6.39207 8.52827 6.49412C8.03716 6.70472 7.45255 7.03313 6.94738 7.38217C6.5114 7.68337 5.50285 8.54864 5.20317 8.87858C5.0776 9.01681 4.95625 9.14614 4.93361 9.16584C4.91092 9.18555 4.82977 9.27961 4.75317 9.37501C4.67657 9.47036 4.60404 9.55558 4.59207 9.56425C4.56133 9.58649 4.26448 9.9797 4.08044 10.2419C3.75774 10.7016 3.5457 11.0639 3.23185 11.6921C3.206 11.7441 3.15774 11.8404 3.12491 11.906C3.09209 11.9716 3.06533 12.0456 3.06533 12.0704C3.06533 12.0953 3.0423 12.1621 3.01439 12.2191C2.98644 12.276 2.93592 12.4077 2.90219 12.5117C2.86846 12.6157 2.82452 12.7484 2.80442 12.8064C2.76721 12.9138 2.7186 13.151 2.67948 13.4151C2.66076 13.541 2.66723 13.564 2.72548 13.577C2.82558 13.5992 9.09194 13.6017 9.18759 13.5793L9.26924 13.5604V9.91045C9.26924 6.60322 9.26369 6.25903 9.21153 6.2416C9.20361 6.23885 9.19329 6.23764 9.18146 6.23747L9.18148 6.23752ZM5.92598 6.38013C5.71528 6.38013 4.06796 7.83485 3.53503 8.49154C3.48616 8.55174 3.42733 8.61894 3.40415 8.64079C3.38092 8.66257 3.28643 8.77645 3.19417 8.89375C3.10188 9.01108 2.93826 9.21348 2.83055 9.34354C2.72288 9.47357 2.63365 9.59591 2.63229 9.61547C2.62967 9.63496 2.60556 9.66867 2.57559 9.69025C2.48915 9.7526 2.51123 9.86633 2.65402 10.0936C2.72709 10.2099 2.80987 10.3441 2.83802 10.3917C2.89214 10.4834 2.91213 10.492 2.98146 10.4537C3.00521 10.4406 3.04215 10.3947 3.06363 10.3517C3.08501 10.3088 3.13481 10.2309 3.17413 10.1789C3.21344 10.1269 3.26062 10.056 3.27888 10.0213C3.29707 9.98663 3.35447 9.90437 3.40635 9.83856C3.45823 9.77277 3.50073 9.71352 3.50073 9.7067C3.50073 9.6548 4.25014 8.76877 4.61906 8.38452C4.93659 8.05378 5.8448 7.24971 6.1346 7.04289C6.24344 6.96523 6.38048 6.86367 6.43913 6.81712L6.54575 6.73237L6.26599 6.55641C6.11215 6.45953 5.95925 6.38013 5.92598 6.38013ZM16.3857 6.38013C16.3524 6.38013 16.1993 6.45944 16.0454 6.55641L15.7653 6.73285L15.8919 6.83641C15.9615 6.8934 16.0749 6.97363 16.144 7.01474C16.3244 7.12197 17.3706 8.04679 17.6937 8.38452C18.0652 8.77284 18.811 9.65544 18.811 9.7067C18.811 9.71358 18.8535 9.77277 18.9054 9.83856C18.9573 9.90437 19.0146 9.98663 19.0328 10.0213C19.051 10.056 19.0983 10.1269 19.1376 10.1789C19.1769 10.2309 19.2266 10.3088 19.2481 10.3517C19.2855 10.4265 19.3452 10.4769 19.3978 10.4779C19.4113 10.4779 19.4455 10.4395 19.4737 10.3917C19.5018 10.3441 19.5846 10.2099 19.6577 10.0936C19.8005 9.86633 19.8226 9.7526 19.7361 9.69025C19.7062 9.6687 19.6818 9.63903 19.6818 9.62433C19.6818 9.58318 19.201 8.98933 18.723 8.44C18.3021 7.95626 17.9909 7.65023 17.4061 7.1447C16.773 6.59746 16.483 6.38013 16.3857 6.38013ZM11.1312 6.76795C10.7572 6.77021 10.3885 6.83586 10.1901 6.96604C10.0361 7.06714 10.1128 7.14055 10.5028 7.26564C10.7447 7.34321 11.5444 7.34425 11.7907 7.268C12.1992 7.14029 12.2798 7.06082 12.1044 6.95844C11.8846 6.83014 11.5052 6.76706 11.1312 6.76872V6.76795ZM10.1075 7.92476C10.0791 7.92476 10.0674 8.20119 10.0674 8.87051V9.81626H10.1898C10.2571 9.81626 10.3817 9.79497 10.4665 9.76899C10.5769 9.73516 10.773 9.72173 11.1559 9.72173C11.5388 9.72173 11.7348 9.73525 11.8452 9.76899C11.9301 9.79502 12.0544 9.81626 12.1217 9.81626H12.2443V8.87051C12.2443 8.13479 12.2343 7.92476 12.199 7.92476C12.1739 7.92476 12.0392 7.94796 11.8995 7.97631C11.4798 8.06142 10.9694 8.06675 10.5286 7.99053C10.3191 7.95434 10.1295 7.92461 10.1075 7.92461V7.92476ZM11.1372 10.3948C11.0552 10.3925 10.9829 10.3983 10.9275 10.4104C10.8359 10.4303 10.7181 10.4468 10.6658 10.4468C10.5504 10.4468 10.2107 10.5778 10.1435 10.6482C10.1048 10.6886 10.1039 10.7085 10.1394 10.7457C10.2061 10.8155 10.4585 10.9092 10.6841 10.9478C10.7939 10.9666 10.9163 10.9885 10.9562 10.9965C11.0779 11.0207 11.4887 10.9895 11.6999 10.9402C11.9296 10.8865 12.108 10.813 12.1728 10.7451C12.2094 10.7069 12.2061 10.6865 12.1559 10.6384C12.0305 10.518 11.4931 10.4001 11.1373 10.3947L11.1372 10.3948ZM10.134 11.5623C10.1199 11.5623 10.1096 11.5622 10.1044 11.5655C10.0807 11.5783 10.0674 11.9064 10.0674 12.4856V13.3855L10.1854 13.3675C10.2503 13.3576 10.4502 13.3269 10.6298 13.2994C10.9738 13.2466 11.521 13.2556 11.8452 13.3194C11.935 13.3371 12.0615 13.3593 12.1263 13.3686L12.2443 13.3855V12.4855C12.2443 11.9062 12.2311 11.5783 12.2072 11.5655C12.1868 11.5545 12.0847 11.5715 11.9804 11.6031C11.7069 11.6859 10.6099 11.6854 10.3312 11.6031C10.253 11.5798 10.1762 11.5646 10.134 11.5631L10.134 11.5623ZM11.1435 13.9485C10.9555 13.9462 10.7749 13.9624 10.643 13.9966C10.1983 14.1117 10.0269 14.2274 10.1652 14.3189C10.2829 14.3969 10.5522 14.4855 10.7563 14.5137C11.0613 14.5558 11.6341 14.5214 11.8556 14.4475C12.3524 14.2818 12.302 14.1496 11.6879 14.0076C11.5266 13.9704 11.3314 13.9505 11.1435 13.9485ZM3.17956 14.286C3.13235 14.2869 3.08138 14.2887 3.029 14.2911L2.64807 14.3077L2.63806 14.874C2.63251 15.1855 2.63543 15.4586 2.64604 15.4809C2.66874 15.532 3.44746 15.539 3.48342 15.4885C3.49633 15.4704 3.48335 15.4243 3.45474 15.3861C3.30652 15.188 3.2893 14.8157 3.41316 14.4879C3.45007 14.3902 3.46246 14.3115 3.44305 14.2979C3.43389 14.2916 3.38264 14.2876 3.30759 14.2865C3.27007 14.2854 3.22664 14.2855 3.17942 14.2865L3.17956 14.286ZM19.0441 14.286C18.8885 14.286 18.8615 14.2987 18.8534 14.3354C18.8468 14.3656 18.857 14.4073 18.876 14.4282C18.895 14.449 18.9317 14.5614 18.9578 14.678C19.0109 14.9148 18.9659 15.243 18.8609 15.3821C18.7669 15.5067 18.8211 15.5249 19.2584 15.5153L19.6636 15.5064L19.6737 14.9256C19.6792 14.606 19.671 14.334 19.6555 14.321C19.6399 14.3079 19.456 14.2935 19.2466 14.2889C19.1621 14.2866 19.0961 14.2858 19.0442 14.286L19.0441 14.286ZM14.9491 14.2949C14.7761 14.2926 14.5373 14.2973 14.2122 14.299L13.0605 14.3072L13.0503 14.8881C13.0427 15.3317 13.0503 15.475 13.0866 15.4944C13.1389 15.5233 15.2558 15.5308 15.3409 15.5025C15.3988 15.4833 15.3966 15.4753 15.2683 15.2167C15.1931 15.0652 15.205 14.7032 15.2907 14.5392C15.3956 14.3382 15.468 14.2983 14.949 14.2948L14.9491 14.2949ZM7.36377 14.2949C6.84504 14.2984 6.91382 14.3371 7.01987 14.5278C7.10464 14.6803 7.11771 15.0664 7.04312 15.2166C6.91913 15.4664 6.91359 15.4848 6.95824 15.5006C7.0332 15.527 9.17612 15.5213 9.22476 15.4944C9.26003 15.4749 9.26866 15.3316 9.26109 14.8879L9.25107 14.3071L8.09914 14.2989C7.77524 14.2966 7.53693 14.2938 7.36394 14.2949L7.36377 14.2949ZM5.20793 14.3077C4.74656 14.3077 4.58343 14.3508 4.34797 14.5379C4.09587 14.7383 4.0569 14.9344 4.22829 15.1399C4.50706 15.4743 5.13499 15.6095 5.67458 15.4511C5.97468 15.363 6.23347 15.1559 6.27313 14.9722C6.31697 14.769 6.1835 14.5877 5.87726 14.4339L5.62738 14.3083L5.20793 14.3077ZM17.1058 14.313C16.6319 14.313 16.4422 14.3657 16.2197 14.559C15.957 14.7873 15.9704 15.0456 16.2564 15.2644C16.559 15.4958 17.1302 15.5863 17.5244 15.4655C17.7974 15.3818 17.9613 15.2865 18.0836 15.1398C18.2549 14.9344 18.2138 14.7276 17.9634 14.5345C17.733 14.3567 17.5635 14.313 17.1058 14.313ZM10.0674 15.1054V15.4263V15.7472L10.3124 16.0674C10.4471 16.2435 10.5637 16.4018 10.5716 16.4192C10.5795 16.4366 10.6324 16.5024 10.6894 16.5656C10.7463 16.6287 10.7931 16.6877 10.7931 16.6965C10.7931 16.7134 11.0275 17.0218 11.0922 17.0901C11.1517 17.1529 11.1969 17.1232 11.3638 16.9113C11.4489 16.8032 11.5186 16.707 11.5186 16.6976C11.5186 16.6882 11.5654 16.6287 11.6223 16.5656C11.6793 16.5024 11.7322 16.4365 11.7401 16.4192C11.7481 16.4017 11.8647 16.2435 11.9994 16.0674L12.2443 15.7472V15.4271V15.1071L12.072 15.1294C11.9772 15.1416 11.8363 15.1707 11.759 15.1942C11.5714 15.2513 10.8332 15.2507 10.574 15.192C10.465 15.1678 10.3064 15.1383 10.2215 15.1263L10.0674 15.1054ZM14.6982 15.9256C14.1438 15.9329 13.5858 16.1459 13.1693 16.5991C12.3004 17.5445 12.6274 19.0253 13.8271 19.5783C14.3837 19.8349 15.1755 19.815 15.7376 19.5301C16.5384 19.1242 16.9663 18.2613 16.7707 17.4473C16.5367 16.4734 15.6223 15.9135 14.6982 15.9256ZM7.63571 15.9289C6.21531 15.9289 5.213 17.22 5.67882 18.4496C5.87136 18.9579 6.12536 19.2429 6.62281 19.5086C6.98837 19.7038 7.17212 19.7481 7.61722 19.7489C7.91752 19.7497 8.28906 19.7005 8.44288 19.6404C9.51765 19.221 10.0109 18.0236 9.5164 17.0345C9.1614 16.3245 8.48842 15.9289 7.63571 15.9289ZM3.37545 16.1491C3.35226 16.5859 3.34234 16.7042 3.33998 17.6044L3.33407 19.8709L3.58428 20.3756C3.87325 20.9583 4.49141 21.5424 5.07283 21.7819C5.28511 21.8693 5.71712 21.9633 6.03278 21.9907C7.1736 22.09 7.46226 22.4737 7.46226 23.8924C7.46226 24.6437 7.49037 24.8638 7.5989 24.9649C9.18281 24.8922 14.2036 25.0916 14.793 24.944C14.9099 24.8237 14.9371 24.615 14.9371 23.831C14.9371 23.0109 14.9633 22.8265 15.1101 22.6023C15.3581 22.2234 15.7276 22.0464 16.391 21.9887C17.5042 21.8919 18.4632 21.2148 18.8497 20.2527C19.0267 19.8121 19.033 19.6861 18.9999 17.3222C18.9894 16.5717 18.98 16.5418 18.9662 16.1491H18.1267C18.1479 16.5452 18.153 16.6157 18.153 17.5391C18.153 19.9284 18.136 20.0356 17.6772 20.5424C17.3457 20.9086 16.8668 21.1178 16.1742 21.1991C15.3859 21.2917 15.0481 21.4382 14.618 21.8742C14.1764 22.3218 14.0695 22.6533 14.0686 23.5743L14.0677 24.2825H13.6766H13.2854V23.6476C13.2854 22.9855 13.1635 22.7446 12.8285 22.7446C12.5223 22.7446 12.4163 22.9751 12.4163 23.6408V24.2825H12.0252H11.6341V23.6476C11.6341 22.9855 11.5122 22.7446 11.1771 22.7446C10.8709 22.7446 10.765 22.9751 10.765 23.6408V24.2825H10.3738H9.98274V23.6408C9.98274 22.962 9.87733 22.7446 9.54817 22.7446C9.219 22.7446 9.11361 22.962 9.11361 23.6408V24.2825H8.73235H8.35108L8.31476 23.4528C8.27261 22.4894 8.11519 22.122 7.55274 21.6736C7.16597 21.3652 6.70577 21.207 6.19184 21.2058C5.45419 21.2041 4.57515 20.6087 4.32083 19.9386C4.19132 19.5973 4.16783 17.509 4.24767 16.1491L3.37545 16.1491ZM11.18 18.7106C11.0497 18.7094 10.9212 18.7436 10.8781 18.7943C10.829 18.8522 10.5884 19.4622 10.3434 20.1497C9.92984 21.3102 9.90722 21.4131 10.0292 21.5865C10.1541 21.764 10.2111 21.7732 11.1842 21.7732C12.2847 21.7732 12.4208 21.7288 12.4103 21.3726C12.4069 21.259 12.2017 20.6197 11.954 19.9519C11.5119 18.7595 11.499 18.7373 11.2356 18.7133C11.2172 18.7116 11.1986 18.7108 11.18 18.7107V18.7106Z" fill="#F02E2E"/>
</svg>
