<svg width="62" height="69" viewBox="0 0 62 69" fill="none" xmlns="http://www.w3.org/2000/svg">
<path d="M4.55317 0.000483618C4.43104 0.0163456 4.11511 0.308772 3.52481 0.947377C3.30375 1.18663 3.06814 1.43218 3.00142 1.49327C2.74089 1.73183 1.79335 3.06672 1.47425 3.64449C1.28918 3.97948 1.07417 4.35738 0.996603 4.48448C0.918957 4.61147 0.855653 4.79547 0.855653 4.8929C0.855653 4.99036 0.816399 5.09087 0.768862 5.11632C0.691033 5.15809 0.517224 5.75106 0.129521 7.29895C-0.0398679 7.97556 -0.0439515 10.9174 0.122226 11.7362C0.190383 12.0712 0.294285 12.5801 0.35278 12.8673C0.548894 13.8302 0.64059 14.2179 0.738455 14.5006C0.792014 14.655 0.910745 15.0168 1.00251 15.3039C1.09427 15.591 1.2159 15.9432 1.27268 16.0867C1.32916 16.2303 1.41324 16.465 1.45893 16.6086C1.56019 16.9266 1.74858 17.3854 1.92901 17.7531C2.003 17.9039 2.06491 18.0799 2.06667 18.1445C2.06667 18.2091 2.13637 18.3379 2.21803 18.4308C2.29933 18.5237 2.36608 18.6713 2.36608 18.7585C2.36608 18.8457 2.40917 18.9848 2.46181 19.0679C2.51455 19.151 2.62471 19.3559 2.70651 19.5234C2.87025 19.8586 3.23488 20.5995 3.37038 20.8722C4.19917 22.54 5.59678 24.9309 5.72178 24.8949C5.78775 24.876 6.05529 24.5894 6.31635 24.2583C6.57751 23.9272 6.83924 23.6085 6.89816 23.5497C6.95683 23.4908 7.14907 23.2557 7.32488 23.0273C8.5621 21.4209 12.0274 18.1108 13.8052 16.8368C14.1645 16.5793 14.4587 16.3187 14.4587 16.2582C14.4587 16.1975 14.1296 15.9019 13.7279 15.6006C12.0758 14.3618 10.1593 12.593 9.06946 11.3012C8.90793 11.1099 8.71702 10.9219 8.64463 10.8836C8.57209 10.8456 8.51306 10.7657 8.51306 10.7065C8.51306 10.647 8.37859 10.4632 8.2146 10.2976C8.05054 10.1318 7.91464 9.96743 7.91237 9.93235C7.91237 9.89756 7.73831 9.62308 7.53045 9.32321C6.53749 7.89028 5.60337 5.91692 5.29553 4.60186C5.25083 4.41044 5.16373 4.07755 5.10268 3.86223C4.91605 3.20428 4.75457 2.04076 4.70993 1.03422C4.68648 0.507833 4.63402 0.0474451 4.59299 0.0105371C4.58359 0.0018238 4.56983 -0.00130397 4.55295 0.000483618H4.55317ZM57.3963 0.00785515C57.372 0.00785515 57.3561 0.017462 57.3473 0.0388202C57.3202 0.107519 57.2797 0.574878 57.2582 1.07736C57.2164 2.04469 57.0534 3.21221 56.8692 3.86174C56.8084 4.07708 56.7211 4.40993 56.6763 4.60135C56.5419 5.17559 56.2005 6.11323 55.9111 6.70282C55.8371 6.85364 55.7767 7.00038 55.7767 7.02922C55.7767 7.14687 54.8252 8.79365 54.4579 9.31179C54.2409 9.61792 54.0617 9.89682 54.0595 9.93186C54.0595 9.96665 53.9213 10.1314 53.7573 10.2971C53.5933 10.4627 53.4588 10.6467 53.4588 10.7059C53.4588 10.7654 53.3989 10.8453 53.3258 10.8835C53.2525 10.9215 52.9931 11.1877 52.7497 11.4748C51.756 12.6468 49.8315 14.4088 48.244 15.5997C47.8422 15.9011 47.5132 16.1976 47.5132 16.2581C47.5132 16.3189 47.8073 16.5788 48.1667 16.8363C49.9205 18.0931 53.605 21.6085 54.5932 22.9679C54.7355 23.1637 54.9128 23.3793 54.9869 23.447C55.0611 23.5149 55.3002 23.8048 55.5188 24.0916C55.9508 24.6584 56.1837 24.9176 56.26 24.9176C56.2871 24.9176 56.369 24.849 56.443 24.7653C56.5831 24.6065 57.1694 23.5959 57.6415 22.6987C57.7926 22.4116 58.0415 21.9421 58.195 21.6549C58.898 20.3402 59.0013 20.1395 59.0013 20.0893C59.0013 20.0594 59.0945 19.8519 59.2083 19.6272C59.705 18.6475 60.3084 17.251 60.5129 16.6085C60.5584 16.4649 60.6423 16.2298 60.6992 16.0862C60.7556 15.9427 60.8776 15.5904 60.9693 15.3034C61.0611 15.0162 61.1799 14.6545 61.2334 14.5C61.3328 14.2129 61.4321 13.7907 61.6172 12.8672C61.6751 12.58 61.7688 12.1197 61.8266 11.8444C61.9957 11.0382 62.0587 8.85319 61.9359 8.03807C61.7653 6.90449 61.6275 6.1981 61.5215 5.90867C61.1158 4.80005 60.9488 4.4192 60.5643 3.73126C60.3235 3.30057 60.0092 2.79927 59.8661 2.61768C59.7229 2.43611 59.6058 2.26581 59.6058 2.23893C59.6058 2.16194 58.3665 0.81822 57.8575 0.3434C57.6163 0.118579 57.4693 0.0109379 57.3963 0.00785475L57.3963 0.00785515ZM31.343 13.8084C30.6072 13.7943 29.4953 13.9013 29.1981 14.0283C27.8824 14.5905 27.9632 14.4684 27.9632 15.8924V17.1072L28.2405 17.0488C28.393 17.0165 28.7215 16.953 28.9708 16.907C30.5687 16.612 31.8355 16.6495 33.7325 17.0488L34.0098 17.1072V15.8833V14.6593L33.6821 14.4446C33.1954 14.125 32.4156 13.8882 31.632 13.8224C31.5458 13.8155 31.4481 13.8099 31.343 13.8079V13.8084ZM36.4706 17.2129V17.2156C36.4375 17.2156 36.409 17.2221 36.3871 17.2269C36.2419 17.275 36.2268 18.2255 36.2268 27.3569C36.2268 36.8811 36.2364 37.4367 36.4031 37.4742C36.6779 37.5362 54.0838 37.5388 54.3518 37.4742C54.5705 37.4236 54.585 37.3865 54.53 37.0187C54.4214 36.2916 54.2864 35.6384 54.1834 35.3431C54.1277 35.183 54.0055 34.8168 53.9119 34.5297C53.8182 34.2426 53.6779 33.8791 53.6002 33.722C53.5225 33.5649 53.4588 33.3821 53.4588 33.3158C53.4588 33.2495 53.3944 33.0847 53.3159 32.9492C53.2372 32.8137 53.0937 32.5266 52.9976 32.3113C52.8124 31.896 52.298 30.8894 52.1432 30.6396C52.0926 30.5576 51.8312 30.1266 51.5628 29.6822C50.9616 28.6864 50.0619 27.4196 49.3821 26.6121C49.1002 26.2771 48.7943 25.9009 48.7022 25.776C48.6101 25.6511 48.475 25.4944 48.4019 25.4278C48.3286 25.3612 47.9213 24.9346 47.4966 24.48C46.54 23.4564 43.9559 21.2544 42.676 20.3722C41.2715 19.4041 39.6472 18.4965 38.2844 17.9186C37.6237 17.6384 36.9626 17.3556 36.8152 17.2902C36.7046 17.2408 36.5688 17.2121 36.4705 17.213L36.4706 17.2129ZM25.5025 17.2156C25.4042 17.2156 25.2683 17.2435 25.1578 17.2928C25.0103 17.3583 24.3491 17.6421 23.6881 17.9238C22.324 18.505 20.7002 19.4114 19.297 20.3748C18.0861 21.2061 15.2847 23.5943 14.4523 24.5049C14.1035 24.8864 13.7665 25.2433 13.7036 25.2977C13.6406 25.3521 13.4152 25.6117 13.2024 25.875C12.9896 26.1382 12.7882 26.3734 12.7549 26.3973C12.6695 26.4587 11.845 27.544 11.3338 28.2676C10.4375 29.5365 9.84854 30.5365 8.97679 32.2702C8.90498 32.4138 8.77095 32.6796 8.67974 32.8606C8.58859 33.0417 8.51426 33.2459 8.51426 33.3144C8.51426 33.383 8.45029 33.5674 8.37278 33.7246C8.29514 33.8817 8.15481 34.2452 8.06112 34.5323C7.96743 34.8194 7.84539 35.1855 7.78955 35.3456C7.6862 35.6421 7.55118 36.2968 7.44252 37.0256C7.39051 37.3731 7.40849 37.4366 7.5703 37.4725C7.84833 37.5338 25.2538 37.5407 25.5194 37.479L25.7462 37.4266V27.3529C25.7462 18.2249 25.7308 17.2749 25.5859 17.2268C25.5639 17.2192 25.5353 17.2159 25.5024 17.2154L25.5025 17.2156ZM16.46 17.6092C15.8748 17.6092 11.2992 21.6242 9.81889 23.4367C9.68314 23.6028 9.51976 23.7883 9.45535 23.8486C9.39085 23.9087 9.1284 24.223 8.87212 24.5468C8.61579 24.8706 8.1613 25.4292 7.86214 25.7882C7.56306 26.147 7.31522 26.4847 7.31146 26.5387C7.30416 26.5925 7.2372 26.6855 7.15397 26.7451C6.91387 26.9172 6.97519 27.2311 7.3718 27.8583C7.57475 28.1792 7.80469 28.5496 7.88288 28.6812C8.03321 28.9342 8.08872 28.958 8.28131 28.8523C8.34728 28.8162 8.44987 28.6895 8.50953 28.5708C8.56892 28.4522 8.70724 28.2374 8.81646 28.0939C8.92565 27.9503 9.05669 27.7546 9.10741 27.6588C9.15795 27.5631 9.31738 27.3361 9.46148 27.1544C9.60558 26.9728 9.72364 26.8093 9.72364 26.7905C9.72364 26.6472 11.8052 24.2018 12.8299 23.1413C13.7119 22.2284 16.2345 20.0092 17.0395 19.4384C17.3418 19.224 17.7224 18.9437 17.8853 18.8152L18.1815 18.5814L17.4044 18.0957C16.9771 17.8283 16.5524 17.6092 16.46 17.6092ZM45.513 17.6092C45.4206 17.6092 44.9953 17.8281 44.5677 18.0957L43.7897 18.5827L44.1414 18.8685C44.3346 19.0258 44.6496 19.2472 44.8416 19.3607C45.3425 19.6566 48.2485 22.2091 49.1459 23.1413C50.1778 24.213 52.2494 26.649 52.2494 26.7905C52.2494 26.8095 52.3674 26.9728 52.5115 27.1544C52.6557 27.3361 52.8149 27.5631 52.8656 27.6588C52.9162 27.7546 53.0473 27.9503 53.1565 28.0939C53.2657 28.2374 53.4038 28.4522 53.4635 28.5708C53.5673 28.7772 53.7334 28.9162 53.8794 28.919C53.9168 28.919 54.0118 28.8129 54.0901 28.6812C54.1683 28.5497 54.3983 28.1792 54.6012 27.8583C54.9979 27.2311 55.0592 26.9172 54.8191 26.7451C54.7359 26.6856 54.6682 26.6037 54.6682 26.5632C54.6682 26.4496 53.3328 24.8105 52.0051 23.2944C50.8359 21.9593 49.9717 21.1146 48.3472 19.7194C46.5887 18.209 45.7832 17.6092 45.513 17.6092ZM30.9182 18.6795C29.8793 18.6858 28.8551 18.867 28.3041 19.2263C27.8762 19.5053 28.0892 19.7079 29.1726 20.0532C29.8445 20.2673 32.0657 20.2701 32.7499 20.0597C33.8844 19.7072 34.1084 19.4879 33.6213 19.2053C33.0107 18.8512 31.9569 18.6771 30.9182 18.6817V18.6795ZM28.0745 21.8723C27.9957 21.8723 27.9632 22.6353 27.9632 24.4826V27.0929H28.3032C28.4902 27.0929 28.8361 27.0341 29.0717 26.9624C29.3783 26.8691 29.9231 26.832 30.9865 26.832C32.0501 26.832 32.5947 26.8693 32.9013 26.9624C33.1369 27.0343 33.4823 27.0929 33.6693 27.0929H34.0098V24.4826C34.0098 22.452 33.982 21.8723 33.8839 21.8723C33.8143 21.8723 33.4401 21.9364 33.0522 22.0146C31.8863 22.2495 30.4685 22.2642 29.2443 22.0539C28.6623 21.954 28.1357 21.8719 28.0745 21.8719V21.8723ZM30.9346 28.6895C30.7069 28.6833 30.5061 28.6993 30.3523 28.7327C30.0978 28.7877 29.7706 28.8331 29.6253 28.8331C29.3049 28.8331 28.3612 29.1948 28.1745 29.389C28.0671 29.5006 28.0646 29.5554 28.1632 29.6582C28.3484 29.8509 29.0496 30.1094 29.6762 30.2159C29.981 30.2677 30.3212 30.3283 30.432 30.3503C30.7699 30.4171 31.911 30.3311 32.4977 30.1949C33.1355 30.0467 33.6311 29.8439 33.8113 29.6565C33.9128 29.5509 33.9036 29.4947 33.7641 29.3619C33.4159 29.0297 31.9231 28.7043 30.9351 28.6895L30.9346 28.6895ZM28.1481 31.912C28.109 31.912 28.0804 31.9118 28.0661 31.9207C28.0001 31.9562 27.9633 32.8616 27.9633 34.4603V36.944L28.291 36.8943C28.4711 36.8671 29.0265 36.7822 29.5254 36.7062C30.4809 36.5605 32.0006 36.5855 32.9013 36.7616C33.1507 36.8103 33.502 36.8716 33.6821 36.8973L34.0098 36.944V34.4599C34.0098 32.8612 33.9731 31.9561 33.9066 31.9207C33.8501 31.8905 33.5663 31.9375 33.2766 32.0246C32.5172 32.2532 29.4702 32.2516 28.696 32.0246C28.4787 31.9602 28.2653 31.9182 28.1481 31.9142L28.1481 31.912ZM30.9521 38.4979C30.43 38.4916 29.9283 38.5361 29.5621 38.6305C28.3269 38.9484 27.8508 39.2675 28.2348 39.5203C28.5618 39.7355 29.3098 39.9801 29.8766 40.0578C30.7239 40.174 32.315 40.0791 32.93 39.875C34.31 39.4177 34.1702 39.053 32.4642 38.6611C32.0164 38.5582 31.474 38.5034 30.9521 38.4979ZM8.83155 39.4295C8.70041 39.4319 8.55885 39.4368 8.41335 39.4433L7.35528 39.4891L7.32747 41.0522C7.31205 41.912 7.32016 42.6659 7.34963 42.7273C7.41268 42.8684 9.57568 42.8877 9.67555 42.7483C9.71141 42.6983 9.67537 42.5711 9.59589 42.4656C9.18419 41.9189 9.13637 40.8914 9.48039 39.9866C9.5829 39.717 9.61733 39.4997 9.56342 39.4621C9.53796 39.4447 9.39563 39.4338 9.18715 39.4307C9.08294 39.4276 8.96232 39.4278 8.83116 39.4307L8.83155 39.4295ZM52.8967 39.4295C52.4648 39.4295 52.3898 39.4644 52.3673 39.5656C52.3489 39.649 52.3772 39.7643 52.4299 39.8217C52.4827 39.8793 52.5847 40.1895 52.6572 40.5112C52.8046 41.1648 52.6796 42.0707 52.388 42.4547C52.1271 42.7986 52.2776 42.8486 53.4922 42.8221L54.6177 42.7977L54.6455 41.1945C54.6609 40.3127 54.6382 39.5618 54.5951 39.5259C54.5518 39.4898 54.041 39.4502 53.4592 39.4373C53.2245 39.4311 53.0412 39.4288 52.8972 39.4295L52.8967 39.4295ZM41.5227 39.4539C41.0422 39.4477 40.3789 39.4604 39.4759 39.4653L36.2768 39.488L36.2485 41.0912C36.2275 42.3155 36.2486 42.7109 36.3494 42.7646C36.4947 42.8443 42.3746 42.8651 42.611 42.7869C42.7717 42.7338 42.7657 42.7118 42.4091 41.998C42.2002 41.58 42.2335 40.5809 42.4714 40.1282C42.7628 39.5735 42.9638 39.4632 41.5222 39.4536L41.5227 39.4539ZM20.4536 39.4539C19.0128 39.4635 19.2038 39.5703 19.4984 40.0967C19.7338 40.5176 19.7702 41.5834 19.563 41.9979C19.2186 42.6872 19.2032 42.738 19.3272 42.7815C19.5354 42.8546 25.4876 42.8387 25.6227 42.7646C25.7207 42.7108 25.7446 42.3151 25.7236 41.0907L25.6958 39.4875L22.4962 39.4648C21.5965 39.4586 20.9346 39.4508 20.4541 39.4539L20.4536 39.4539ZM14.4655 39.4893C13.184 39.4893 12.7309 39.6082 12.0769 40.1246C11.3767 40.6776 11.2685 41.2189 11.7445 41.7862C12.5188 42.7092 14.2629 43.0821 15.7617 42.645C16.5953 42.4019 17.3141 41.8303 17.4242 41.3233C17.546 40.7624 17.1753 40.2619 16.3247 39.8375L15.6306 39.491L14.4655 39.4893ZM47.5132 39.5038C46.1968 39.5038 45.6698 39.6492 45.0519 40.1827C44.3221 40.8129 44.3594 41.526 45.1537 42.1298C45.9942 42.7685 47.5807 43.0182 48.6759 42.6848C49.434 42.4539 49.8894 42.1907 50.229 41.7859C50.7047 41.2188 50.5905 40.6482 49.8952 40.1151C49.2553 39.6246 48.7844 39.5038 47.5132 39.5038ZM27.9632 41.6908V42.5766V43.4624L28.6436 44.346C29.0177 44.8321 29.3417 45.269 29.3636 45.3169C29.3856 45.365 29.5326 45.5466 29.6908 45.721C29.849 45.8953 29.9789 46.0581 29.9789 46.0823C29.9789 46.1291 30.6298 46.9801 30.8097 47.1688C30.975 47.3421 31.1006 47.26 31.5641 46.6753C31.8006 46.3768 31.9941 46.1112 31.9941 46.0853C31.9941 46.0595 32.124 45.8953 32.2822 45.721C32.4404 45.5466 32.5875 45.3647 32.6094 45.3169C32.6314 45.2688 32.9553 44.8321 33.3294 44.346L34.0098 43.4624V42.5788V41.6956L33.5312 41.7571C33.2679 41.7908 32.8765 41.871 32.6618 41.936C32.1406 42.0937 30.0902 42.0918 29.3702 41.93C29.0676 41.8633 28.6269 41.7816 28.3914 41.7485L27.9632 41.6908ZM40.8258 43.9546C39.2858 43.9747 37.7359 44.5626 36.579 45.8135C34.1657 48.4227 35.074 52.5097 38.4061 54.0361C39.9523 54.7444 42.1515 54.6895 43.7128 53.903C45.937 52.7827 47.1257 50.4011 46.5824 48.1545C45.9324 45.4665 43.3926 43.9212 40.8258 43.9546ZM21.209 43.9637C17.2637 43.9637 14.4796 47.5272 15.7735 50.921C16.3083 52.3238 17.0138 53.1103 18.3955 53.8437C19.4109 54.3826 19.9213 54.5047 21.1576 54.5069C21.9917 54.5091 23.0237 54.3733 23.4509 54.2076C26.4362 53.0498 27.8064 49.7451 26.4327 47.0152C25.4467 45.0555 23.5774 43.9637 21.209 43.9637ZM9.37566 44.5716C9.31125 45.7771 9.28368 46.1037 9.27712 48.5882L9.26072 54.8438L9.95569 56.2366C10.7583 57.8448 12.4754 59.4569 14.0903 60.118C14.6799 60.3594 15.8799 60.6186 16.7567 60.6944C19.9254 60.9683 20.7272 62.0275 20.7272 65.9429C20.7272 68.0166 20.8053 68.6241 21.1067 68.9031C25.5062 68.7025 39.452 69.2529 41.089 68.8455C41.4136 68.5135 41.4893 67.9375 41.4893 65.7736C41.4893 63.5101 41.5621 63.001 41.9698 62.3822C42.6587 61.3365 43.6851 60.848 45.5277 60.6888C48.6197 60.4215 51.2834 58.5529 52.357 55.8976C52.8486 54.6814 52.8661 54.3336 52.7742 47.8093C52.745 45.738 52.7189 45.6553 52.6804 44.5716H50.3488C50.4076 45.6648 50.4219 45.8593 50.4219 48.408C50.4219 55.0025 50.3745 55.2983 49.1003 56.697C48.1795 57.7076 46.8491 58.2852 44.9256 58.5096C42.7359 58.765 41.7975 59.1695 40.6029 60.3728C39.3763 61.6082 39.0795 62.523 39.0771 65.0649L39.0743 67.0198H37.988H36.9016V65.2674C36.9016 63.4401 36.5629 62.775 35.6324 62.775C34.7819 62.775 34.4876 63.4112 34.4876 65.2486V67.0198H33.4012H32.3149V65.2674C32.3149 63.4401 31.9762 62.775 31.0456 62.775C30.1951 62.775 29.9008 63.4112 29.9008 65.2486V67.0198H28.8144H27.7281V65.2486C27.7281 63.375 27.4353 62.775 26.521 62.775C25.6067 62.775 25.3139 63.375 25.3139 65.2486V67.0198H24.255H23.1959L23.0951 64.7298C22.978 62.0707 22.5407 61.0566 20.9785 59.8191C19.9042 58.9681 18.6259 58.5313 17.1985 58.5279C15.1496 58.5232 12.7079 56.88 12.0015 55.0305C11.6418 54.0886 11.5766 48.3249 11.7983 44.5716H9.37566ZM31.0535 51.6414C30.6917 51.638 30.3346 51.7323 30.2151 51.8722C30.0786 52.0321 29.4104 53.7155 28.7299 55.6131C27.5811 58.8162 27.5183 59.1001 27.8572 59.5787C28.2041 60.0688 28.3623 60.094 31.0653 60.094C34.1219 60.094 34.5001 59.9714 34.4709 58.9883C34.4615 58.675 33.8913 56.9104 33.2035 55.0672C31.9756 51.7763 31.9395 51.7149 31.2081 51.6488C31.1569 51.6441 31.1051 51.6419 31.0535 51.6415V51.6414Z" fill="black"/>
</svg>
